{"glyphs":{"0":{"ha":1028,"x_min":32,"x_max":996,"o":"m 78 492 q 129 249 78 355 q 279 85 180 143 q 517 26 379 26 q 755 84 656 26 q 904 247 854 142 q 954 492 954 351 q 924 682 954 596 q 838 829 895 767 q 699 923 781 890 q 517 956 618 956 q 328 922 410 956 q 191 825 246 888 q 106 677 135 762 q 78 492 78 592 m 377 489 q 383 658 377 598 q 420 758 389 718 q 515 798 450 798 q 608 758 578 798 q 644 659 637 719 q 650 489 650 598 q 644 326 650 386 q 607 224 637 265 q 515 182 577 182 q 437 208 466 182 q 395 273 408 233 q 380 362 382 313 q 377 489 377 411 m 32 489 q 63 691 32 599 q 156 853 95 784 q 308 959 218 922 q 515 996 398 996 q 715 960 626 996 q 867 858 804 925 q 963 697 930 790 q 996 489 996 604 q 941 222 996 336 q 777 45 886 108 q 515 -17 668 -17 q 254 46 363 -17 q 88 225 144 110 q 32 489 32 340 m 422 491 q 424 382 422 425 q 434 305 426 340 q 463 248 443 270 q 515 226 483 226 q 580 262 559 226 q 604 350 600 298 q 608 492 608 403 q 604 639 608 586 q 580 726 600 692 q 515 759 560 759 q 451 725 472 759 q 427 639 431 692 q 422 491 422 586 z "},"1":{"ha":722,"x_min":-18,"x_max":646,"o":"m 81 478 l -18 733 l 347 979 l 646 979 l 646 0 l 296 0 l 296 636 l 81 478 m 355 939 l 27 717 l 99 534 l 307 687 l 336 658 l 336 41 l 605 41 l 605 939 l 355 939 z "},"2":{"ha":822,"x_min":28,"x_max":794,"o":"m 397 236 l 794 236 l 794 0 l 28 0 l 28 275 q 311 435 188 355 q 409 519 373 477 q 444 615 444 560 q 392 719 444 686 q 264 751 340 751 q 47 710 144 751 l 47 965 q 201 987 125 979 q 354 996 277 996 q 667 922 541 996 q 794 675 794 849 q 759 529 794 595 q 667 411 723 463 q 551 323 610 360 q 397 239 491 287 l 397 236 m 88 932 l 88 763 q 264 792 144 789 q 418 748 361 788 q 485 615 476 708 q 438 498 477 543 q 332 408 399 453 q 68 254 205 324 l 68 41 l 753 41 l 753 195 l 351 195 l 351 267 q 532 359 477 323 q 637 441 586 396 q 721 542 689 486 q 753 675 753 597 q 632 890 741 827 q 354 955 524 952 q 88 932 277 955 z "},"3":{"ha":822,"x_min":29,"x_max":793,"o":"m 151 385 l 151 599 q 229 596 204 596 q 315 600 277 596 q 384 623 353 604 q 415 679 415 641 q 374 755 415 732 q 273 778 332 778 q 152 766 214 778 q 39 739 89 755 l 39 958 q 181 987 103 979 q 358 996 259 996 q 507 981 434 996 q 642 933 579 966 q 742 848 704 901 q 779 721 779 794 q 593 500 779 554 l 593 497 q 793 271 793 445 q 731 106 793 170 q 572 12 669 41 q 366 -17 475 -17 q 188 -6 282 -17 q 29 24 94 5 l 29 252 q 144 223 77 235 q 273 211 212 211 q 388 230 347 211 q 429 298 429 248 q 381 374 429 354 q 271 395 334 395 q 151 385 228 395 m 80 922 l 80 792 q 163 811 106 802 q 272 819 220 820 q 408 782 358 819 q 456 679 458 745 q 411 593 454 621 q 325 562 368 566 q 229 555 281 557 q 192 555 206 553 l 192 431 q 271 435 229 437 q 408 402 353 435 q 470 298 464 370 q 412 201 467 228 q 273 170 358 174 q 146 185 214 170 q 70 203 79 201 l 70 58 q 194 34 103 46 q 366 24 286 22 q 563 54 478 26 q 696 132 647 81 q 752 271 745 183 q 552 467 749 422 l 552 534 q 739 720 735 572 q 703 830 736 784 q 616 901 670 876 q 497 941 562 926 q 358 955 433 955 q 188 947 262 958 q 80 922 114 937 z "},"4":{"ha":978,"x_min":22,"x_max":956,"o":"m 245 380 l 563 740 l 563 380 l 245 380 m 746 353 l 746 939 l 567 939 l 62 372 l 62 228 l 591 228 l 591 41 l 746 41 l 746 228 l 914 228 l 914 353 l 746 353 m 785 396 l 956 396 l 956 187 l 785 187 l 785 0 l 549 0 l 549 187 l 22 187 l 22 396 l 549 979 l 785 979 l 785 396 m 347 423 l 519 423 l 519 616 l 347 423 z "},"5":{"ha":822,"x_min":52,"x_max":793,"o":"m 749 979 l 749 751 l 383 751 l 383 600 q 492 604 420 604 q 642 568 573 604 q 752 463 711 531 q 793 304 793 394 q 730 114 793 185 q 568 13 667 42 q 350 -17 469 -17 q 254 -12 308 -17 q 151 2 201 -7 q 52 25 101 12 l 52 249 q 256 220 176 220 q 429 330 429 220 q 373 424 429 398 q 237 450 316 450 q 64 428 158 450 l 64 979 l 749 979 m 92 62 q 156 44 106 56 q 258 28 206 33 q 350 23 311 24 q 551 55 460 26 q 694 138 643 84 q 751 305 746 191 q 716 442 751 385 q 622 532 681 499 q 491 564 563 566 q 343 559 420 567 l 343 598 l 343 792 l 708 792 l 708 939 l 104 939 l 104 475 q 237 491 163 488 q 407 452 349 488 q 469 331 465 416 q 256 179 463 186 q 92 195 172 176 l 92 62 z "},"6":{"ha":950,"x_min":22,"x_max":928,"o":"m 798 937 q 543 955 713 958 q 296 901 401 954 q 128 738 190 848 q 63 468 66 627 q 123 235 68 334 q 278 83 178 137 q 498 24 378 29 q 688 63 600 27 q 830 161 777 98 q 888 327 883 224 q 842 476 884 415 q 737 570 799 538 q 591 600 675 602 q 471 585 517 597 q 387 541 425 573 l 332 541 q 408 757 326 700 q 598 819 490 814 q 674 818 638 821 q 733 811 709 816 q 772 802 756 806 q 798 795 789 798 l 798 937 m 638 330 q 597 213 638 259 q 487 167 555 167 q 379 211 418 167 q 340 320 340 254 q 377 442 340 398 q 487 486 415 486 q 598 443 557 486 q 638 330 638 401 m 839 970 l 839 743 q 790 755 822 747 q 733 768 758 764 q 674 775 709 772 q 597 778 638 778 q 437 732 503 778 q 372 582 372 686 q 461 626 407 610 q 590 642 515 642 q 756 605 678 642 q 881 496 833 568 q 928 328 928 425 q 867 135 928 213 q 708 20 806 58 q 498 -17 610 -17 q 250 45 359 -17 q 82 217 141 106 q 22 468 22 328 q 89 755 22 636 q 273 935 155 875 q 543 996 391 996 q 839 970 715 996 m 595 329 q 566 416 595 384 q 486 448 536 448 q 407 415 434 448 q 380 322 380 382 q 408 238 380 271 q 486 205 436 205 q 565 240 535 205 q 595 329 595 275 z "},"7":{"ha":822,"x_min":17,"x_max":806,"o":"m 17 979 l 806 979 l 806 710 l 457 0 l 40 0 l 453 710 l 17 710 l 17 979 m 58 939 l 58 751 l 494 751 l 494 699 l 110 41 l 439 41 l 765 722 l 765 939 l 58 939 z "},"8":{"ha":950,"x_min":17,"x_max":933,"o":"m 57 262 q 130 129 73 174 q 277 60 187 84 q 473 24 366 35 q 637 46 567 30 q 766 88 708 62 q 856 157 825 114 q 892 262 887 201 q 837 392 879 345 q 697 469 795 439 l 697 534 q 826 605 792 564 q 868 727 860 646 q 808 860 860 814 q 670 928 757 906 q 473 955 583 949 q 323 935 391 947 q 197 894 255 922 q 111 826 138 865 q 75 728 84 787 q 96 635 81 667 q 146 579 111 602 q 258 534 182 556 l 258 477 q 57 262 73 442 m 613 321 q 578 203 613 249 q 473 158 543 158 q 370 202 402 158 q 337 317 337 247 q 369 431 337 389 q 473 474 401 474 q 578 432 543 474 q 613 321 613 389 m 351 705 q 383 794 351 758 q 473 830 416 830 q 560 793 528 830 q 592 703 592 756 q 560 609 592 646 q 473 572 528 572 q 383 610 415 573 q 351 705 351 646 m 17 261 q 211 498 17 452 l 211 501 q 112 550 151 522 q 53 622 73 578 q 33 728 33 666 q 71 856 33 804 q 173 938 109 907 q 313 982 237 969 q 473 996 390 996 q 688 971 590 996 q 848 886 786 946 q 909 728 909 826 q 865 585 909 637 q 734 500 821 532 l 734 501 l 734 498 q 879 417 824 476 q 933 261 933 357 q 893 130 933 184 q 787 43 852 75 q 639 -3 721 12 q 473 -17 557 -17 q 256 9 360 -17 q 85 98 153 36 q 17 261 17 159 m 575 323 q 550 407 575 375 q 473 439 525 439 q 398 407 422 439 q 375 321 375 374 q 399 235 375 269 q 473 201 422 201 q 550 235 525 201 q 575 323 575 269 m 391 705 q 413 636 391 663 q 473 609 434 610 q 531 636 509 609 q 552 703 552 663 q 531 768 552 742 q 473 795 509 795 q 413 769 435 795 q 391 705 391 743 z "},"9":{"ha":950,"x_min":22,"x_max":927,"o":"m 151 42 q 407 24 236 21 q 654 79 548 26 q 821 242 760 132 q 886 511 883 352 q 826 744 881 646 q 672 896 772 842 q 451 956 572 950 q 261 917 350 952 q 119 818 172 881 q 62 652 66 755 q 108 503 65 564 q 213 409 151 441 q 359 380 275 377 q 479 394 433 382 q 563 438 525 406 l 618 438 q 542 222 623 279 q 351 161 460 165 q 276 161 311 159 q 217 168 240 163 q 177 177 193 173 q 151 184 161 182 l 151 42 m 311 650 q 353 766 311 720 q 463 812 394 812 q 571 769 532 812 q 610 659 610 725 q 572 537 610 581 q 463 494 534 494 q 352 536 392 494 q 311 650 311 578 m 111 9 l 111 236 q 160 224 127 232 q 216 212 192 216 q 276 204 240 208 q 352 201 311 201 q 512 248 447 201 q 577 397 577 294 q 489 353 543 369 q 359 338 435 338 q 194 375 271 338 q 69 483 116 412 q 22 652 22 554 q 82 844 22 766 q 241 959 143 922 q 451 996 339 996 q 699 935 590 996 q 868 762 808 873 q 927 511 927 652 q 861 224 927 343 q 676 44 794 104 q 407 -16 558 -16 q 111 9 234 -16 m 355 650 q 384 564 355 595 q 463 532 413 532 q 542 565 515 532 q 569 657 569 597 q 541 741 569 708 q 463 774 513 774 q 385 739 414 774 q 355 650 355 704 z "},"`":{"ha":1095,"x_min":-14,"x_max":1136,"o":"m -14 688 l -14 979 l 808 979 l 1136 0 l 766 0 l 704 176 l 413 176 l 351 0 l 0 0 l 226 688 l -14 688 m 57 41 l 324 41 l 387 217 l 736 217 l 800 41 l 1080 41 l 782 939 l 27 939 l 27 728 l 286 728 l 57 41 m 480 415 l 642 415 l 567 633 l 480 415 m 566 777 l 705 374 l 416 374 l 566 777 z "},"-":{"ha":514,"x_min":62,"x_max":452,"o":"m 103 296 l 411 296 l 411 459 l 103 459 l 103 296 m 62 256 l 62 500 l 452 500 l 452 256 l 62 256 z "},"=":{"ha":987,"x_min":0,"x_max":1028,"o":"m 0 292 l 1028 292 l 1028 251 l 0 251 l 0 292 m 1028 0 l 0 0 l 0 41 l 1028 41 l 1028 0 z "},"q":{"ha":1112,"x_min":7,"x_max":1112,"o":"m 1112 292 l 1112 0 l 529 -17 q 308 19 404 -14 q 144 116 212 52 q 41 275 76 181 q 7 489 7 368 q 43 701 7 612 q 148 854 79 789 q 315 952 217 920 q 564 989 412 985 q 837 941 719 985 q 1029 798 955 898 q 1096 499 1104 697 q 1031 342 1080 410 q 1083 292 982 275 l 1112 292 m 1055 499 q 1016 740 1067 640 q 846 893 964 840 q 566 947 728 947 q 348 916 444 947 q 185 827 252 886 q 84 683 119 769 q 47 485 50 597 q 110 233 50 336 q 287 77 170 130 q 566 24 404 24 l 1071 41 l 1071 251 q 970 307 951 258 q 1012 388 989 357 q 1055 499 1035 419 m 338 477 q 562 723 338 723 q 749 649 705 723 q 798 477 793 574 q 778 333 793 406 q 562 280 762 260 l 562 229 q 384 302 429 229 q 338 477 338 376 m 374 476 q 411 330 374 393 q 559 267 448 267 l 559 310 q 737 355 724 294 q 753 476 750 416 q 713 623 750 560 q 559 685 677 685 q 374 476 374 685 z "},"w":{"ha":1358,"x_min":0,"x_max":1409,"o":"m 720 415 l 617 0 l 298 0 l 0 979 l 319 979 l 453 556 l 570 979 l 863 979 l 999 556 l 1090 979 l 1409 979 l 1163 0 l 844 0 l 720 415 m 52 939 l 332 41 l 586 41 l 693 455 l 749 455 l 876 41 l 1133 41 l 1359 939 l 1122 939 l 1022 515 l 977 515 l 835 939 l 604 939 l 482 515 l 424 515 l 290 939 l 52 939 z "},"e":{"ha":922,"x_min":41,"x_max":922,"o":"m 41 0 l 41 979 l 880 979 l 880 688 l 359 688 l 359 575 l 696 575 l 696 404 l 359 404 l 359 292 l 922 292 l 922 0 l 41 0 m 81 939 l 81 41 l 882 41 l 882 251 l 319 251 l 319 444 l 655 444 l 655 534 l 319 534 l 319 728 l 840 728 l 840 939 l 81 939 z "},"r":{"ha":1051,"x_min":41,"x_max":1051,"o":"m 41 0 l 41 979 l 678 979 q 867 921 796 968 q 964 829 939 873 q 1001 722 990 785 q 987 583 1012 658 q 901 460 962 507 q 726 385 840 412 l 799 292 l 1051 292 l 1051 0 l 705 0 l 395 323 l 395 0 l 41 0 m 81 41 l 354 41 l 354 364 l 420 364 l 729 41 l 1010 41 l 1010 251 l 775 251 l 685 361 l 685 418 q 876 490 825 447 q 948 594 927 532 q 962 712 970 656 q 933 805 954 768 q 847 886 911 842 q 678 939 783 929 l 81 939 l 81 41 m 378 752 l 652 752 q 696 731 670 752 q 728 642 723 709 q 700 555 725 572 q 652 537 674 537 l 378 537 l 378 752 m 420 713 l 420 574 l 629 574 q 666 586 646 574 q 687 643 686 597 q 663 699 684 685 q 629 713 642 713 l 420 713 z "},"t":{"ha":859,"x_min":0,"x_max":859,"o":"m 859 979 l 859 688 l 589 688 l 589 0 l 270 0 l 270 688 l 0 688 l 0 979 l 859 979 m 41 939 l 41 728 l 311 728 l 311 41 l 548 41 l 548 728 l 818 728 l 818 939 l 41 939 z "},"y":{"ha":1095,"x_min":0,"x_max":1175,"o":"m 1175 979 l 747 359 l 747 0 l 427 0 l 427 359 l 0 979 l 387 979 l 586 677 l 788 979 l 1175 979 m 79 939 l 469 372 l 469 41 l 708 41 l 708 372 l 1100 939 l 815 939 l 610 636 l 566 636 l 365 939 l 79 939 z "},"u":{"ha":1013,"x_min":41,"x_max":1013,"o":"m 359 979 l 359 400 q 397 262 355 301 q 529 221 439 224 q 649 263 601 222 q 694 400 697 304 l 694 979 l 1013 979 l 1013 405 q 973 210 1011 283 q 876 88 935 137 q 729 12 817 39 q 532 -18 640 -15 q 348 7 441 -16 q 185 79 255 30 q 78 204 116 127 q 41 404 41 281 l 41 979 l 359 979 m 81 939 l 81 404 q 119 223 88 283 q 211 117 149 163 q 359 48 273 71 q 532 23 446 26 q 718 54 633 27 q 852 124 802 80 q 937 229 903 168 q 972 405 970 289 l 972 939 l 735 939 l 735 400 q 690 243 739 297 q 529 180 642 190 q 363 237 411 184 q 319 400 316 290 l 319 939 l 81 939 z "},"i":{"ha":359,"x_min":41,"x_max":359,"o":"m 41 979 l 359 979 l 359 0 l 41 0 l 41 979 m 81 939 l 81 41 l 319 41 l 319 939 l 81 939 z "},"o":{"ha":1137,"x_min":7,"x_max":1131,"o":"m 1090 484 q 1026 736 1088 632 q 846 893 964 840 q 566 947 728 947 q 348 916 444 947 q 185 827 252 886 q 84 683 119 769 q 47 485 50 597 q 110 233 50 336 q 287 77 170 130 q 566 24 404 24 q 846 76 729 24 q 1026 233 964 129 q 1090 484 1088 337 m 1131 484 q 1064 210 1131 323 q 870 40 997 97 q 566 -17 743 -17 q 263 40 390 -17 q 72 210 137 98 q 7 484 7 322 q 44 700 7 607 q 153 857 81 793 q 330 954 225 921 q 566 987 434 987 q 869 929 742 987 q 1064 758 997 871 q 1131 484 1131 645 m 330 483 q 560 741 330 741 q 752 664 707 741 q 803 483 798 587 q 785 358 798 410 q 719 266 772 307 q 560 226 667 226 q 376 303 423 226 q 330 483 330 380 m 374 481 q 412 331 374 395 q 563 267 450 267 q 693 300 650 267 q 747 377 736 334 q 762 481 758 420 q 721 631 758 567 q 563 694 683 694 q 374 481 374 694 z "},"p":{"ha":1018,"x_min":41,"x_max":1012,"o":"m 41 0 l 41 979 l 678 979 q 869 918 796 964 q 971 806 941 872 q 1006 692 1001 739 q 1009 600 1012 646 q 989 508 1006 555 q 898 401 972 461 q 701 323 823 342 l 395 323 l 395 0 l 41 0 m 378 752 l 652 752 q 696 731 670 752 q 728 642 723 709 q 700 555 725 572 q 652 537 674 537 l 378 537 l 378 752 m 81 41 l 354 41 l 354 364 l 701 364 q 878 439 817 388 q 959 557 939 490 q 968 686 979 625 q 935 791 956 746 q 852 880 914 836 q 678 939 791 925 l 81 939 l 81 41 m 420 713 l 420 574 l 629 574 q 666 586 646 574 q 687 643 686 597 q 663 699 684 685 q 629 713 642 713 l 420 713 z "},"[":{"ha":0,"x_min":-163,"x_max":41,"o":"m 41 939 l -122 939 l -122 728 l 41 728 l 41 688 l -163 688 l -163 979 l 41 979 l 41 939 z "},"]":{"ha":0,"x_min":0,"x_max":203,"o":"m 0 979 l 203 979 l 203 688 l 0 688 l 0 728 l 163 728 l 163 939 l 0 939 l 0 979 z "},"\\":{"ha":0,"x_min":1109,"x_max":1313,"o":"m 1109 -56 l 1313 -56 l 1313 -347 l 1109 -347 l 1109 -307 l 1272 -307 l 1272 -96 l 1109 -96 l 1109 -56 z "},"a":{"ha":1095,"x_min":0,"x_max":1136,"o":"m 0 0 l 322 979 l 808 979 l 1136 0 l 766 0 l 704 176 l 413 176 l 351 0 l 0 0 m 566 777 l 705 374 l 416 374 l 566 777 m 57 41 l 324 41 l 387 217 l 736 217 l 800 41 l 1080 41 l 782 939 l 356 939 l 57 41 m 480 415 l 642 415 l 567 633 l 480 415 z "},"s":{"ha":770,"x_min":0,"x_max":770,"o":"m 770 979 l 770 688 l 572 688 q 521 591 398 693 q 736 217 741 399 q 521 0 732 35 l 0 0 l 0 292 l 206 292 q 255 399 398 286 q 54 798 19 616 q 277 979 90 979 l 770 979 m 41 251 l 41 41 l 521 41 q 694 236 700 79 q 456 591 689 393 q 572 728 347 732 l 729 728 l 729 939 l 277 939 q 99 788 136 936 q 293 426 62 640 q 206 251 464 258 l 41 251 z "},"d":{"ha":1127,"x_min":41,"x_max":1120,"o":"m 41 0 l 41 979 l 618 979 q 826 950 736 979 q 978 866 917 921 q 1079 721 1038 811 q 1120 490 1120 631 q 1076 259 1113 353 q 977 111 1038 165 q 826 27 915 57 q 602 0 736 -3 l 41 0 m 349 755 l 553 755 q 669 727 625 755 q 741 649 713 699 q 772 494 769 599 q 737 335 764 379 q 667 262 710 290 q 555 233 625 233 l 349 233 l 349 755 m 81 41 l 602 41 q 835 73 765 45 q 951 143 905 100 q 1036 269 997 186 q 1080 490 1076 353 q 1060 660 1074 621 q 1023 743 1046 699 q 954 833 1001 787 q 821 910 906 879 q 618 939 736 941 l 81 939 l 81 41 m 389 715 l 390 274 l 555 274 q 657 302 625 276 q 706 357 690 328 q 731 494 723 387 q 707 622 725 583 q 655 687 688 660 q 553 715 621 713 l 389 715 z "},"f":{"ha":880,"x_min":41,"x_max":880,"o":"m 41 0 l 41 979 l 880 979 l 880 688 l 359 688 l 359 575 l 696 575 l 696 404 l 359 404 l 359 0 l 41 0 m 81 939 l 81 41 l 319 41 l 319 444 l 655 444 l 655 534 l 319 534 l 319 728 l 840 728 l 840 939 l 81 939 z "},"g":{"ha":1006,"x_min":7,"x_max":1006,"o":"m 966 728 l 966 939 l 572 939 q 369 912 461 937 q 205 831 277 887 q 92 694 134 776 q 47 504 50 613 q 117 247 46 350 q 307 94 187 144 q 572 41 426 43 l 966 41 l 966 449 l 741 449 l 741 251 l 700 251 q 553 256 608 250 q 446 276 499 262 q 357 339 393 290 q 315 487 321 388 q 361 640 323 601 q 444 696 400 678 q 542 720 488 713 q 700 728 596 726 l 966 728 m 1006 979 l 1006 688 l 700 688 q 547 682 597 688 q 459 661 498 675 q 391 612 420 647 q 356 487 361 576 q 391 363 359 400 q 467 313 422 326 q 559 296 511 301 q 700 292 606 292 l 700 490 l 1006 490 l 1006 0 l 572 0 q 284 57 413 0 q 81 227 155 113 q 7 504 7 340 q 51 710 7 619 q 174 860 96 800 q 355 950 253 920 q 572 979 457 979 l 1006 979 z "},"h":{"ha":935,"x_min":41,"x_max":935,"o":"m 616 642 l 616 979 l 935 979 l 935 0 l 616 0 l 616 353 l 359 353 l 359 0 l 41 0 l 41 979 l 359 979 l 359 642 l 616 642 m 81 939 l 81 41 l 319 41 l 319 393 l 656 393 l 656 41 l 894 41 l 894 939 l 656 939 l 656 601 l 319 601 l 319 939 l 81 939 z "},"j":{"ha":581,"x_min":0,"x_max":581,"o":"m 581 979 l 581 688 l 540 688 l 540 308 q 507 153 536 195 q 424 71 479 111 q 274 9 369 31 q 124 2 182 3 q 0 0 66 1 l 0 292 q 119 292 53 278 q 193 320 172 304 q 221 397 213 336 l 221 979 l 581 979 m 262 939 l 262 397 q 218 294 253 320 q 119 254 182 269 q 41 247 79 243 l 41 41 q 274 50 182 39 q 414 109 365 69 q 481 185 463 148 q 499 308 499 223 l 499 728 l 540 728 l 540 939 l 262 939 z "},"k":{"ha":952,"x_min":41,"x_max":952,"o":"m 359 979 l 359 661 l 583 979 l 902 979 l 537 490 l 700 292 l 952 292 l 952 0 l 606 0 l 359 292 l 359 0 l 41 0 l 41 979 l 359 979 m 81 939 l 81 41 l 319 41 l 319 332 l 375 332 l 627 41 l 911 41 l 911 251 l 680 251 l 496 472 l 496 507 l 824 939 l 604 939 l 387 620 l 319 620 l 319 939 l 81 939 z "},"l":{"ha":890,"x_min":41,"x_max":890,"o":"m 41 0 l 41 979 l 359 979 l 359 292 l 890 292 l 890 0 l 41 0 m 81 939 l 81 41 l 849 41 l 849 251 l 319 251 l 319 939 l 81 939 z "},";":{"ha":977,"x_min":7,"x_max":960,"o":"m 324 500 q 359 378 330 419 q 431 314 389 338 q 556 279 472 290 q 681 302 643 285 q 768 361 719 320 l 960 146 q 793 38 876 68 q 553 0 711 8 q 323 44 401 8 q 169 141 245 81 q 50 291 93 201 q 7 501 7 382 q 50 710 7 619 q 166 861 93 800 q 321 957 240 921 q 553 999 401 993 q 793 963 711 993 q 960 854 876 933 l 768 640 q 681 699 719 681 q 556 722 643 716 q 431 687 472 711 q 359 623 389 663 q 324 500 330 582 m 898 849 q 777 925 852 901 q 553 958 703 949 q 337 920 411 955 q 199 830 263 884 q 92 694 134 776 q 47 501 50 613 q 92 308 49 380 q 202 179 136 236 q 347 83 269 122 q 553 41 426 43 q 775 73 705 48 q 903 152 846 98 l 764 297 q 556 239 681 236 q 407 278 456 252 q 317 355 358 304 q 277 500 277 407 q 316 647 277 597 q 406 726 355 697 q 563 761 456 755 q 764 697 678 765 l 898 849 z "},"'":{"ha":439,"x_min":115,"x_max":323,"o":"m 115 551 l 115 979 l 323 979 l 323 551 l 115 551 m 158 593 l 285 593 l 285 940 l 158 940 l 158 593 z "},"z":{"ha":936,"x_min":41,"x_max":936,"o":"m 41 979 l 936 979 l 936 688 l 462 292 l 936 292 l 936 0 l 41 0 l 41 292 l 515 688 l 41 688 l 41 979 m 81 939 l 81 728 l 553 728 l 553 671 l 81 273 l 81 41 l 895 41 l 895 251 l 421 251 l 421 309 l 895 701 l 895 939 l 81 939 z "},"x":{"ha":1096,"x_min":0,"x_max":1175,"o":"m 1175 979 l 815 490 l 1175 0 l 788 0 l 586 302 l 387 0 l 0 0 l 359 490 l 0 979 l 387 979 l 586 677 l 788 979 l 1175 979 m 77 939 l 400 517 l 400 469 l 81 41 l 368 41 l 562 343 l 616 343 l 811 41 l 1097 41 l 774 467 l 774 513 l 1099 939 l 814 939 l 608 636 l 564 636 l 363 939 l 77 939 z "},"c":{"ha":1006,"x_min":7,"x_max":1006,"o":"m 966 939 l 572 939 q 369 912 461 937 q 205 831 277 887 q 92 694 134 776 q 47 504 50 613 q 117 247 46 350 q 307 94 187 144 q 572 41 426 43 l 966 41 l 966 251 l 700 251 q 553 256 608 250 q 446 276 499 262 q 357 339 393 290 q 315 487 321 388 q 361 640 323 601 q 444 696 400 678 q 542 720 488 713 q 700 728 596 726 l 966 728 l 966 939 m 1006 292 l 1006 0 l 572 0 q 284 57 413 0 q 81 227 155 113 q 7 504 7 340 q 51 710 7 619 q 174 860 96 800 q 355 950 253 920 q 572 979 457 979 l 1006 979 l 1006 688 l 700 688 q 547 682 597 688 q 459 661 498 675 q 391 612 420 647 q 356 487 361 576 q 391 363 359 400 q 467 313 422 326 q 559 296 511 301 q 700 292 606 292 l 1006 292 z "},"v":{"ha":1168,"x_min":0,"x_max":1214,"o":"m 374 979 l 596 227 l 821 979 l 1214 979 l 865 0 l 345 0 l 0 979 l 374 979 m 370 41 l 840 41 l 1162 939 l 850 939 l 627 186 l 568 186 l 342 939 l 59 939 l 370 41 z "},"b":{"ha":1104,"x_min":41,"x_max":1097,"o":"m 41 0 l 41 979 l 709 979 q 953 924 869 978 q 1055 742 1037 869 q 1013 589 1061 644 q 857 497 966 533 l 857 494 q 956 466 910 488 q 1032 413 1001 444 q 1080 345 1063 383 q 1097 271 1097 307 q 1037 95 1097 155 q 885 17 978 35 q 659 0 791 -1 l 41 0 m 354 759 l 572 759 q 674 735 633 758 q 712 667 714 712 q 671 603 712 629 q 572 578 630 577 l 354 578 l 354 759 m 395 718 l 395 618 l 572 618 q 645 632 625 623 q 671 667 664 642 q 649 704 671 693 q 573 718 628 715 l 395 718 m 81 41 l 659 41 q 878 56 789 38 q 1013 126 966 73 q 1056 271 1059 180 q 1040 337 1056 307 q 1000 391 1025 368 q 937 434 976 415 q 809 473 899 454 l 809 517 q 973 599 925 549 q 1014 742 1021 648 q 926 893 999 849 q 709 939 854 937 l 81 939 l 81 41 m 354 401 l 611 401 q 734 372 686 404 q 777 288 783 340 q 730 206 779 239 q 611 176 682 174 l 354 176 l 354 401 m 395 361 l 395 217 l 611 217 q 707 236 682 218 q 736 288 732 254 q 710 342 737 324 q 611 361 682 359 l 395 361 z "},"n":{"ha":970,"x_min":41,"x_max":970,"o":"m 41 0 l 41 979 l 359 979 l 651 613 l 651 979 l 970 979 l 970 0 l 651 0 l 359 366 l 359 0 l 41 0 m 81 939 l 81 41 l 319 41 l 319 407 l 383 407 l 675 41 l 929 41 l 929 939 l 692 939 l 692 574 l 627 574 l 342 939 l 81 939 z "},"m":{"ha":1105,"x_min":41,"x_max":1105,"o":"m 41 0 l 41 979 l 359 979 l 574 572 l 787 979 l 1105 979 l 1105 0 l 787 0 l 787 407 l 582 0 l 564 0 l 359 407 l 359 0 l 41 0 m 81 939 l 81 41 l 319 41 l 319 452 l 381 452 l 571 57 l 764 448 l 827 448 l 827 41 l 1065 41 l 1065 939 l 810 939 l 586 515 l 562 515 l 336 939 l 81 939 z "},",":{"ha":514,"x_min":41,"x_max":422,"o":"m 127 269 l 422 269 l 262 -158 l 41 -158 l 127 269 m 153 240 l 83 -129 l 236 -129 l 374 240 l 153 240 z "},".":{"ha":514,"x_min":106,"x_max":408,"o":"m 146 41 l 368 41 l 368 229 l 146 229 l 146 41 m 106 0 l 106 269 l 408 269 l 408 0 l 106 0 z "},"/":{"ha":514,"x_min":-83,"x_max":597,"o":"m 351 996 l 597 996 l 163 -17 l -83 -17 l 351 996 m -16 22 l 133 22 l 534 955 l 382 955 l -16 22 z "}," ":{"ha":644,"x_min":0,"x_max":0,"o":""},"~":{"ha":1095,"x_min":-14,"x_max":1135,"o":"m 896 688 l 1122 0 l 770 0 l 709 176 l 418 176 l 356 0 l -14 0 l 313 979 l 1135 979 l 1135 688 l 896 688 m 836 728 l 1095 728 l 1095 939 l 340 939 l 41 41 l 321 41 l 385 217 l 734 217 l 798 41 l 1065 41 l 836 728 m 555 633 l 480 415 l 642 415 l 555 633 m 705 374 l 416 374 l 555 777 l 705 374 z "},"!":{"ha":591,"x_min":110,"x_max":482,"o":"m 110 979 l 482 979 l 428 363 l 164 363 l 110 979 m 144 261 l 447 261 l 447 0 l 144 0 l 144 261 m 185 220 l 185 41 l 406 41 l 406 220 l 185 220 m 155 939 l 204 404 l 388 404 l 436 939 l 155 939 z "},"@":{"ha":3735,"x_min":-665,"x_max":3642,"o":"m 3642 598 l 3642 307 l 3408 307 q 3357 210 3235 319 q 3573 -164 3577 18 q 3357 -381 3569 -346 l 2834 -381 l 2834 -90 l 3042 -90 q 3091 18 3235 -99 q 2890 416 2855 235 q 3113 598 2926 598 l 3642 598 m 1496 1706 l 1496 1415 l 1185 1415 l 1185 727 l 867 727 l 867 1415 l 644 1415 l 482 1415 q 431 1318 309 1427 q 646 944 650 1126 q 431 727 642 762 l -503 727 l -503 1019 l 116 1019 q 165 1126 309 1009 q -36 1525 -71 1343 q 186 1706 -1 1706 l 644 1706 l 644 1706 l 1496 1706 m 632 -380 l 956 598 l 1442 598 l 1768 -380 l 1398 -380 l 1336 -203 l 1045 -203 l 983 -380 l 632 -380 m 1782 -381 l 1782 598 l 2420 598 q 2614 536 2538 587 q 2725 397 2690 484 q 2728 197 2752 267 q 2642 79 2703 126 q 2467 4 2581 31 l 2540 -90 l 2833 -90 l 2833 -381 l 2447 -381 l 2136 -58 l 2136 -381 l 1782 -381 m -318 598 l -144 175 l -54 598 l 265 598 l 20 -381 l -299 -381 l -665 598 l -318 598 m 266 598 l 402 175 l 543 598 l 888 598 l 566 -381 l 248 -381 l 125 35 l 228 447 l 266 598 m 1335 727 l 1657 1706 l 2143 1706 l 2471 727 l 2100 727 l 2039 903 l 1748 903 l 1686 727 l 1335 727 m 2498 727 l 2498 1706 l 3136 1706 q 3330 1644 3254 1695 q 3441 1506 3406 1592 q 3444 1305 3468 1375 q 3358 1187 3419 1234 q 3183 1112 3297 1139 l 3257 1019 l 3550 1019 l 3550 727 l 3163 727 l 2852 1050 l 2852 727 l 2498 727 m 1389 768 l 1656 768 l 1719 944 l 2068 944 l 2132 768 l 2412 768 l 2114 1666 l 1688 1666 l 1389 768 m 684 -339 l 951 -339 l 1014 -163 l 1363 -163 l 1427 -339 l 1707 -339 l 1409 559 l 983 559 l 684 -339 m 1193 397 l 1332 -5 l 1043 -5 l 1193 397 m 1898 1503 l 2037 1101 l 1748 1101 l 1898 1503 m 1107 35 l 1268 35 l 1194 254 l 1107 35 m 1812 1142 l 1973 1142 l 1899 1360 l 1812 1142 m 644 1666 l 190 1663 q 12 1512 49 1660 q 206 1150 -24 1364 q 119 975 377 982 l -463 975 l -463 765 l 434 765 q 608 960 613 803 q 369 1316 602 1118 q 486 1453 260 1457 l 910 1455 l 910 768 l 1146 768 l 1146 1455 l 1457 1455 l 1457 1666 l 644 1666 m 1823 -340 l 2096 -340 l 2096 -17 l 2161 -17 l 2471 -340 l 2793 -340 l 2793 -130 l 2517 -130 l 2426 -20 l 2426 37 q 2617 109 2566 66 q 2690 213 2669 151 q 2704 331 2711 275 q 2674 424 2696 387 q 2589 505 2653 461 q 2420 557 2524 548 l 1823 557 l 1823 -340 m 2539 768 l 2812 768 l 2812 1091 l 2877 1091 l 3187 768 l 3509 768 l 3509 978 l 3233 978 l 3143 1088 l 3143 1145 q 3334 1217 3282 1174 q 3406 1321 3385 1259 q 3420 1439 3427 1383 q 3391 1532 3412 1495 q 3305 1613 3369 1569 q 3137 1666 3240 1656 l 2539 1666 l 2539 768 m 2119 374 l 2393 374 q 2438 352 2412 374 q 2469 264 2464 331 q 2441 176 2466 194 q 2394 159 2416 159 l 2119 159 l 2119 374 m 2835 1482 l 3109 1482 q 3154 1460 3128 1482 q 3185 1372 3181 1439 q 3157 1284 3183 1302 q 3110 1267 3132 1267 l 2835 1267 l 2835 1482 m 2159 337 l 2159 199 l 2368 199 q 2404 210 2384 199 q 2426 267 2424 221 q 2402 323 2422 309 q 2367 337 2381 337 l 2159 337 m 2876 1445 l 2876 1307 l 3086 1307 q 3122 1318 3102 1307 q 3143 1375 3142 1329 q 3119 1431 3140 1417 q 3085 1445 3099 1445 l 2876 1445 m -602 559 l -260 -339 l -16 -339 l 90 90 l 163 90 l 279 -339 l 537 -339 l 822 559 l 586 559 l 434 141 l 374 141 l 231 559 l -11 559 l -103 141 l -174 141 l -350 559 l -602 559 m 2793 -130 l 2793 -340 l 3356 -336 q 3529 -141 3535 -298 q 3290 214 3524 16 q 3407 351 3182 355 l 3598 351 l 3598 562 l 3111 562 q 2934 411 2970 559 q 3128 49 2897 263 q 3041 -130 3299 -119 l 2793 -130 m 645 1666 l 645 1454 l 645 1666 z "},"#":{"ha":0,"x_min":-41,"x_max":81,"o":"m -41 728 l 81 728 l 81 688 l -41 688 l -41 728 m -41 979 l 81 979 l 81 939 l -41 939 l -41 979 z "},"$":{"ha":0,"x_min":-41,"x_max":81,"o":"m -41 41 l 81 41 l 81 0 l -41 0 l -41 41 m -41 292 l 81 292 l 81 251 l -41 251 l -41 292 z "},"%":{"ha":0,"x_min":41,"x_max":81,"o":"m 41 939 l 81 939 l 81 728 l 41 728 l 41 939 z "},"^":{"ha":0,"x_min":41,"x_max":81,"o":"m 41 251 l 81 251 l 81 41 l 41 41 l 41 251 z "},"&":{"ha":0,"x_min":-41,"x_max":0,"o":"m -41 939 l 0 939 l 0 728 l -41 728 l -41 939 z "},"*":{"ha":0,"x_min":-41,"x_max":0,"o":"m -41 251 l 0 251 l 0 41 l -41 41 l -41 251 z "},"(":{"ha":514,"x_min":43,"x_max":486,"o":"m 418 -30 q 351 127 372 60 q 316 260 331 195 q 294 401 301 326 q 285 559 288 477 q 297 707 290 632 q 319 850 304 781 q 355 987 334 920 q 415 1145 377 1055 l 258 1145 q 89 559 87 844 q 111 345 87 445 q 168 156 136 244 q 258 -30 201 68 l 418 -30 m 486 -71 l 232 -71 q 132 129 174 25 q 66 340 90 233 q 43 557 43 448 q 232 1186 43 865 l 486 1186 q 418 1038 447 1114 q 369 882 389 963 q 339 720 349 801 q 330 557 330 638 q 339 394 330 476 q 369 232 349 312 q 417 77 388 152 q 486 -71 446 2 z "},")":{"ha":514,"x_min":48,"x_max":491,"o":"m 117 -30 l 277 -30 q 366 156 334 68 q 423 345 399 244 q 446 559 448 445 q 277 1145 448 844 l 119 1145 q 179 987 157 1055 q 216 850 201 920 q 237 707 231 781 q 250 559 244 632 q 240 401 247 477 q 218 260 233 326 q 183 127 203 195 q 117 -30 163 60 m 48 -71 q 117 77 88 2 q 166 232 146 152 q 195 394 185 312 q 205 557 205 476 q 195 720 205 638 q 166 882 186 801 q 117 1038 146 963 q 48 1186 87 1114 l 302 1186 q 491 557 491 865 q 468 340 491 448 q 402 129 445 233 q 302 -71 360 25 l 48 -71 z "},"_":{"ha":977,"x_min":7,"x_max":977,"o":"m 679 292 l 679 490 l 977 490 l 977 0 l 555 0 q 276 57 401 0 q 79 227 151 113 q 7 504 7 340 q 50 710 7 619 q 169 860 93 800 q 323 957 245 920 q 553 1001 401 993 q 793 963 711 993 q 960 854 876 933 l 768 640 q 681 699 719 681 q 556 722 643 716 q 433 685 472 711 q 363 618 393 659 q 326 494 334 578 q 363 376 334 410 q 438 320 393 342 q 534 293 483 298 q 679 292 586 288 m 898 849 q 777 925 852 901 q 553 958 703 949 q 337 920 411 955 q 199 830 263 884 q 92 694 134 776 q 47 501 50 613 q 96 297 62 363 q 176 183 130 231 q 324 90 222 136 q 553 41 426 43 l 936 41 l 936 449 l 720 449 l 720 251 q 556 239 681 236 q 407 278 456 252 q 317 355 358 304 q 277 500 277 407 q 316 647 277 597 q 406 726 355 697 q 563 761 456 755 q 764 697 678 765 l 898 849 z "},"+":{"ha":987,"x_min":0,"x_max":1028,"o":"m 0 979 l 1028 979 l 1028 939 l 0 939 l 0 979 m 1028 688 l 0 688 l 0 728 l 1028 728 l 1028 688 z "},"Q":{"ha":1112,"x_min":7,"x_max":1112,"o":"m 1055 499 q 1016 740 1067 640 q 846 893 964 840 q 566 947 728 947 q 348 916 444 947 q 185 827 252 886 q 84 683 119 769 q 47 485 50 597 q 110 233 50 336 q 287 77 170 130 q 566 24 404 24 l 1071 41 l 1112 41 l 1112 0 l 529 -17 q 308 19 404 -14 q 144 116 212 52 q 41 275 76 181 q 7 489 7 368 q 43 701 7 612 q 148 854 79 789 q 315 952 217 920 q 564 989 412 985 q 837 941 719 985 q 1029 798 955 898 q 1096 499 1104 697 q 1031 342 1080 410 q 1083 292 982 275 l 1112 292 l 1112 251 l 1071 251 q 970 307 951 258 q 1012 388 989 357 q 1055 499 1035 419 m 338 477 q 562 723 338 723 q 749 649 705 723 q 798 477 793 574 q 778 333 793 406 q 562 280 762 260 l 562 229 q 384 302 429 229 q 338 477 338 376 m 374 476 q 411 330 374 393 q 559 267 448 267 l 559 310 q 737 355 724 294 q 753 476 750 416 q 713 623 750 560 q 559 685 677 685 q 374 476 374 685 z "},"W":{"ha":1310,"x_min":41,"x_max":1310,"o":"m 41 939 l 41 979 l 283 979 l 418 556 l 534 979 l 827 979 l 964 556 l 1055 979 l 1310 979 l 1310 939 l 1087 939 l 987 515 l 941 515 l 800 939 l 569 939 l 447 515 l 389 515 l 254 939 l 41 939 m 1270 728 l 1310 728 l 1310 688 l 1302 688 l 1128 0 l 809 0 l 685 415 l 582 0 l 263 0 l 49 688 l 41 688 l 41 728 l 81 728 l 297 41 l 551 41 l 658 455 l 713 455 l 840 41 l 1098 41 l 1270 728 z "},"E":{"ha":922,"x_min":41,"x_max":922,"o":"m 41 939 l 41 979 l 882 979 l 882 939 l 41 939 m 81 251 l 41 251 l 41 728 l 81 728 l 81 251 m 882 728 l 882 688 l 359 688 l 359 575 l 696 575 l 696 404 l 359 404 l 359 292 l 922 292 l 922 251 l 319 251 l 319 444 l 655 444 l 655 534 l 319 534 l 319 728 l 882 728 m 922 41 l 922 0 l 41 0 l 41 41 l 922 41 z "},"R":{"ha":1051,"x_min":41,"x_max":1051,"o":"m 41 939 l 41 979 l 678 979 q 867 921 796 968 q 964 829 939 873 q 1001 722 990 785 q 987 583 1012 658 q 901 460 962 507 q 726 385 840 412 l 799 292 l 1051 292 l 1051 251 l 775 251 l 685 361 l 685 418 q 876 490 825 447 q 948 594 927 532 q 962 712 970 656 q 933 805 954 768 q 847 886 911 842 q 678 939 783 929 l 41 939 m 378 752 l 652 752 q 696 731 670 752 q 728 642 723 709 q 700 555 725 572 q 652 537 674 537 l 378 537 l 378 752 m 420 713 l 420 574 l 629 574 q 666 586 646 574 q 687 643 686 597 q 663 699 684 685 q 629 713 642 713 l 420 713 m 41 41 l 354 41 l 354 364 l 420 364 l 729 41 l 1051 41 l 1051 0 l 705 0 l 395 323 l 395 0 l 41 0 l 41 41 m 81 728 l 81 251 l 41 251 l 41 728 l 81 728 z "},"T":{"ha":859,"x_min":0,"x_max":859,"o":"m 311 41 l 548 41 l 548 728 l 859 728 l 859 688 l 589 688 l 589 0 l 270 0 l 270 688 l 0 688 l 0 728 l 311 728 l 311 41 m 0 979 l 859 979 l 859 939 l 0 939 l 0 979 z "},"Y":{"ha":857,"x_min":41,"x_max":857,"o":"m 41 939 l 41 979 l 248 979 l 448 677 l 650 979 l 857 979 l 857 939 l 677 939 l 471 636 l 427 636 l 227 939 l 41 939 m 857 728 l 857 688 l 840 688 l 609 359 l 609 0 l 289 0 l 289 359 l 58 688 l 41 688 l 41 728 l 81 728 l 331 372 l 331 41 l 570 41 l 570 372 l 817 728 l 857 728 z "},"U":{"ha":1013,"x_min":41,"x_max":1013,"o":"m 359 979 l 359 400 q 397 262 355 301 q 529 221 439 224 q 649 263 601 222 q 694 400 697 304 l 694 979 l 1013 979 l 1013 939 l 735 939 l 735 400 q 690 243 739 297 q 529 180 642 190 q 363 237 411 184 q 319 400 316 290 l 319 939 l 41 939 l 41 979 l 359 979 m 972 728 l 1013 728 l 1013 405 q 973 210 1011 283 q 876 88 935 137 q 729 12 817 39 q 532 -18 640 -15 q 348 7 441 -16 q 185 79 255 30 q 78 204 116 127 q 41 404 41 281 l 41 728 l 81 728 l 81 404 q 119 223 88 283 q 211 117 149 163 q 359 48 273 71 q 532 23 446 26 q 718 54 633 27 q 852 124 802 80 q 937 229 903 168 q 972 405 970 289 l 972 728 z "},"I":{"ha":952,"x_min":41,"x_max":952,"o":"m 41 939 l 41 979 l 359 979 l 359 661 l 583 979 l 902 979 l 537 490 l 849 3 q 952 -56 891 -60 l 952 -96 q 833 -33 868 -98 l 496 472 l 496 507 l 824 939 l 604 939 l 387 620 l 319 620 l 319 939 l 41 939 m 81 728 l 81 251 l 41 251 l 41 728 l 81 728 m 41 0 l 41 41 l 319 41 l 319 332 l 375 332 l 732 -190 q 952 -307 807 -309 l 952 -347 q 713 -225 783 -349 l 359 292 l 359 0 l 41 0 z "},"O":{"ha":1051,"x_min":41,"x_max":1051,"o":"m 41 939 l 41 979 l 678 979 q 867 921 796 968 q 964 829 939 873 q 1001 722 990 785 q 987 583 1012 658 q 901 460 962 507 q 726 385 840 412 l 978 -27 q 1051 -56 1002 -62 l 1051 -96 q 958 -61 982 -99 l 685 361 l 685 418 q 876 490 825 447 q 948 594 927 532 q 962 712 970 656 q 933 805 954 768 q 847 886 911 842 q 678 939 783 929 l 41 939 m 378 752 l 652 752 q 696 731 670 752 q 728 642 723 709 q 700 555 725 572 q 652 537 674 537 l 378 537 l 378 752 m 420 713 l 420 574 l 629 574 q 666 586 646 574 q 687 643 686 597 q 663 699 684 685 q 629 713 642 713 l 420 713 m 41 41 l 354 41 l 354 364 l 420 364 l 817 -228 q 1051 -307 876 -315 l 1051 -347 q 798 -271 857 -353 l 395 323 l 395 0 l 41 0 l 41 41 m 81 728 l 81 251 l 41 251 l 41 728 l 81 728 z "},"P":{"ha":1018,"x_min":41,"x_max":1012,"o":"m 41 0 l 41 41 l 354 41 l 354 364 l 701 364 q 878 439 817 388 q 959 557 939 490 q 968 686 979 625 q 935 791 956 746 q 852 880 914 836 q 678 939 791 925 l 41 939 l 41 979 l 678 979 q 869 918 796 964 q 971 806 941 872 q 1006 692 1001 739 q 1009 600 1012 646 q 989 508 1006 555 q 898 401 972 461 q 701 323 823 342 l 395 323 l 395 0 l 41 0 m 378 752 l 652 752 q 696 731 670 752 q 728 642 723 709 q 700 555 725 572 q 652 537 674 537 l 378 537 l 378 752 m 420 713 l 420 574 l 629 574 q 666 586 646 574 q 687 643 686 597 q 663 699 684 685 q 629 713 642 713 l 420 713 m 81 728 l 81 251 l 41 251 l 41 728 l 81 728 z "},"{":{"ha":0,"x_min":-163,"x_max":41,"o":"m 41 251 l -122 251 l -122 41 l 41 41 l 41 0 l -163 0 l -163 292 l 41 292 l 41 251 z "},"}":{"ha":0,"x_min":0,"x_max":203,"o":"m 0 292 l 203 292 l 203 0 l 0 0 l 0 41 l 163 41 l 163 251 l 0 251 l 0 292 z "},"|":{"ha":0,"x_min":-1313,"x_max":-1109,"o":"m -1109 -96 l -1272 -96 l -1272 -307 l -1109 -307 l -1109 -347 l -1313 -347 l -1313 -56 l -1109 -56 l -1109 -96 z "},"A":{"ha":1012,"x_min":41,"x_max":1012,"o":"m 41 41 l 292 41 l 354 217 l 699 217 l 761 41 l 1012 41 l 1012 0 l 734 0 l 671 176 l 381 176 l 319 0 l 41 0 l 41 41 m 1004 292 l 1012 292 l 1012 251 l 971 251 l 750 939 l 323 939 l 83 251 l 41 251 l 41 292 l 49 292 l 289 979 l 784 979 l 1004 292 m 534 777 l 673 374 l 384 374 l 534 777 m 448 415 l 609 415 l 534 633 l 448 415 z "},"S":{"ha":770,"x_min":19,"x_max":770,"o":"m 770 979 l 770 939 l 277 939 q 99 788 136 936 q 293 426 62 640 q 206 251 464 258 l 41 251 l 41 292 l 206 292 q 255 399 398 286 q 54 798 19 616 q 277 979 90 979 l 770 979 m 770 688 l 572 688 q 521 591 398 693 q 736 217 741 399 q 521 0 732 35 l 41 0 l 41 41 l 521 41 q 694 236 700 79 q 456 591 689 393 q 572 728 347 732 l 770 728 l 770 688 z "},"D":{"ha":1127,"x_min":41,"x_max":1120,"o":"m 349 755 l 553 755 q 669 727 625 755 q 741 649 713 699 q 772 494 769 599 q 737 335 764 379 q 667 262 710 290 q 555 233 625 233 l 349 233 l 349 755 m 41 41 l 602 41 q 835 73 765 45 q 951 143 905 100 q 1036 269 997 186 q 1080 490 1076 353 q 1060 660 1074 621 q 1023 743 1046 699 q 954 833 1001 787 q 821 910 906 879 q 618 939 736 941 l 41 939 l 41 979 l 618 979 q 826 950 736 979 q 978 866 917 921 q 1079 721 1038 811 q 1120 490 1120 631 q 1076 259 1113 353 q 977 111 1038 165 q 826 27 915 57 q 602 0 736 -3 l 41 0 l 41 41 m 389 715 l 390 274 l 555 274 q 657 302 625 276 q 706 357 690 328 q 731 494 723 387 q 707 622 725 583 q 655 687 688 660 q 553 715 621 713 l 389 715 m 41 251 l 41 728 l 81 728 l 81 251 l 41 251 z "},"F":{"ha":882,"x_min":41,"x_max":882,"o":"m 41 939 l 41 979 l 882 979 l 882 939 l 41 939 m 81 251 l 41 251 l 41 728 l 81 728 l 81 251 m 319 41 l 319 444 l 655 444 l 655 534 l 319 534 l 319 728 l 882 728 l 882 688 l 359 688 l 359 575 l 696 575 l 696 404 l 359 404 l 359 0 l 41 0 l 41 41 l 319 41 z "},"G":{"ha":1006,"x_min":7,"x_max":1006,"o":"m 1006 728 l 1006 688 l 700 688 q 547 682 597 688 q 459 661 498 675 q 391 612 420 647 q 356 487 361 576 q 391 363 359 400 q 467 313 422 326 q 559 296 511 301 q 700 292 606 292 l 700 490 l 1006 490 l 1006 0 l 572 0 q 284 57 413 0 q 81 227 155 113 q 7 504 7 340 q 51 710 7 619 q 174 860 96 800 q 355 950 253 920 q 572 979 457 979 l 1006 979 l 1006 939 l 572 939 q 369 912 461 937 q 205 831 277 887 q 92 694 134 776 q 47 504 50 613 q 117 247 46 350 q 307 94 187 144 q 572 41 426 43 l 966 41 l 966 449 l 741 449 l 741 251 l 700 251 q 553 256 608 250 q 446 276 499 262 q 357 339 393 290 q 315 487 321 388 q 361 640 323 601 q 444 696 400 678 q 542 720 488 713 q 700 728 596 726 l 1006 728 z "},"H":{"ha":935,"x_min":41,"x_max":935,"o":"m 616 642 l 616 979 l 935 979 l 935 939 l 656 939 l 656 601 l 319 601 l 319 939 l 41 939 l 41 979 l 359 979 l 359 642 l 616 642 m 41 251 l 41 490 l 41 728 l 81 728 l 81 490 l 81 251 l 41 251 m 935 728 l 935 251 l 894 251 l 894 728 l 935 728 m 935 41 l 935 0 l 616 0 l 616 353 l 359 353 l 359 0 l 41 0 l 41 41 l 319 41 l 319 393 l 656 393 l 656 41 l 935 41 z "},"J":{"ha":595,"x_min":0,"x_max":595,"o":"m 262 939 l 262 84 q 237 -22 257 7 q 182 -68 217 -50 q 112 -92 148 -87 q 0 -96 76 -98 l 0 -56 q 96 -52 60 -57 q 157 -34 132 -46 q 197 1 182 -22 q 221 84 213 23 l 221 979 l 595 979 l 595 939 l 262 939 m 0 -347 l 0 -307 q 164 -301 102 -307 q 302 -274 227 -296 q 420 -216 377 -252 q 478 -142 463 -180 q 499 -5 494 -104 l 499 728 l 595 728 l 595 688 l 540 688 l 540 -5 q 515 -164 536 -118 q 443 -251 495 -210 q 312 -313 391 -292 q 170 -340 233 -334 q 0 -347 106 -347 z "},"K":{"ha":952,"x_min":41,"x_max":952,"o":"m 41 939 l 41 979 l 359 979 l 359 661 l 583 979 l 902 979 l 537 490 l 700 292 l 952 292 l 952 251 l 680 251 l 496 472 l 496 507 l 824 939 l 604 939 l 387 620 l 319 620 l 319 939 l 41 939 m 81 728 l 81 251 l 41 251 l 41 728 l 81 728 m 41 0 l 41 41 l 319 41 l 319 332 l 375 332 l 627 41 l 952 41 l 952 0 l 606 0 l 359 292 l 359 0 l 41 0 z "},"L":{"ha":890,"x_min":41,"x_max":890,"o":"m 41 939 l 41 979 l 359 979 l 359 292 l 890 292 l 890 251 l 319 251 l 319 939 l 41 939 m 41 728 l 81 728 l 81 251 l 41 251 l 41 728 m 41 41 l 890 41 l 890 0 l 41 0 l 41 41 z "},":":{"ha":514,"x_min":106,"x_max":408,"o":"m 106 0 l 106 269 l 408 269 l 408 0 l 106 0 m 106 461 l 106 730 l 408 730 l 408 461 l 106 461 m 146 226 l 146 38 l 371 38 l 371 226 l 146 226 m 146 690 l 146 502 l 371 502 l 371 690 l 146 690 z "},"\"":{"ha":772,"x_min":134,"x_max":639,"o":"m 431 551 l 431 979 l 639 979 l 639 551 l 431 551 m 474 593 l 601 593 l 601 940 l 474 940 l 474 593 m 134 551 l 134 979 l 342 979 l 342 551 l 134 551 m 174 592 l 301 592 l 301 939 l 174 939 l 174 592 z "},"Z":{"ha":936,"x_min":41,"x_max":936,"o":"m 41 939 l 41 979 l 936 979 l 936 688 l 462 292 l 936 292 l 936 251 l 421 251 l 421 309 l 895 701 l 895 939 l 41 939 m 936 0 l 41 0 l 41 292 l 515 688 l 41 688 l 41 728 l 553 728 l 553 671 l 81 273 l 81 41 l 936 41 l 936 0 z "},"X":{"ha":846,"x_min":41,"x_max":846,"o":"m 41 939 l 41 979 l 241 979 l 441 677 l 643 979 l 846 979 l 846 939 l 669 939 l 463 636 l 419 636 l 218 939 l 41 939 m 846 0 l 643 0 l 441 302 l 241 0 l 41 0 l 41 41 l 222 41 l 416 343 l 471 343 l 666 41 l 846 41 l 846 0 m 41 251 l 41 292 l 49 292 l 214 490 l 49 688 l 41 688 l 41 728 l 81 728 l 255 517 l 255 469 l 81 251 l 41 251 m 846 251 l 846 292 l 838 292 l 673 490 l 838 688 l 846 688 l 846 728 l 806 728 l 632 517 l 632 469 l 806 251 l 846 251 z "},"C":{"ha":1006,"x_min":7,"x_max":1006,"o":"m 1006 939 l 572 939 q 369 912 461 937 q 205 831 277 887 q 92 694 134 776 q 47 504 50 613 q 117 247 46 350 q 307 94 187 144 q 572 41 426 43 l 1006 41 l 1006 0 l 572 0 q 284 57 413 0 q 81 227 155 113 q 7 504 7 340 q 51 710 7 619 q 174 860 96 800 q 355 950 253 920 q 572 979 457 979 l 1006 979 l 1006 939 m 1006 728 l 1006 688 l 700 688 q 547 682 597 688 q 459 661 498 675 q 391 612 420 647 q 356 487 361 576 q 391 363 359 400 q 467 313 422 326 q 559 296 511 301 q 700 292 606 292 l 1006 292 l 1006 251 l 700 251 q 553 256 608 250 q 446 276 499 262 q 357 339 393 290 q 315 487 321 388 q 361 640 323 601 q 444 696 400 678 q 542 720 488 713 q 700 728 596 726 l 1006 728 z "},"V":{"ha":1076,"x_min":41,"x_max":1076,"o":"m 41 979 l 325 979 l 547 227 l 772 979 l 1076 979 l 1076 939 l 802 939 l 578 186 l 519 186 l 293 939 l 41 939 l 41 979 m 816 0 l 296 0 l 49 688 l 41 688 l 41 728 l 83 728 l 321 41 l 791 41 l 1039 728 l 1076 728 l 1076 688 l 1067 688 l 816 0 z "},"B":{"ha":1104,"x_min":41,"x_max":1097,"o":"m 354 759 l 572 759 q 674 735 633 758 q 712 667 714 712 q 671 603 712 629 q 572 578 630 577 l 354 578 l 354 759 m 395 718 l 395 618 l 572 618 q 645 632 625 623 q 671 667 664 642 q 649 704 671 693 q 573 718 628 715 l 395 718 m 41 939 l 41 979 l 709 979 q 953 924 869 978 q 1055 742 1037 869 q 1013 589 1061 644 q 857 497 966 533 l 857 494 q 956 466 910 488 q 1032 413 1001 444 q 1080 345 1063 383 q 1097 271 1097 307 q 1037 95 1097 155 q 885 17 978 35 q 659 0 791 -1 l 41 0 l 41 41 l 659 41 q 878 56 789 38 q 1013 126 966 73 q 1056 271 1059 180 q 1040 337 1056 307 q 1000 391 1025 368 q 937 434 976 415 q 809 473 899 454 l 809 517 q 973 599 925 549 q 1014 742 1021 648 q 926 893 999 849 q 709 939 854 937 l 41 939 m 354 401 l 611 401 q 734 372 686 404 q 777 288 783 340 q 730 206 779 239 q 611 176 682 174 l 354 176 l 354 401 m 395 361 l 395 217 l 611 217 q 707 236 682 218 q 736 288 732 254 q 710 342 737 324 q 611 361 682 359 l 395 361 m 81 728 l 81 251 l 41 251 l 41 728 l 81 728 z "},"N":{"ha":970,"x_min":41,"x_max":970,"o":"m 41 939 l 41 979 l 359 979 l 651 613 l 651 979 l 970 979 l 970 939 l 692 939 l 692 574 l 627 574 l 342 939 l 41 939 m 970 41 l 970 0 l 651 0 l 359 366 l 359 0 l 41 0 l 41 41 l 319 41 l 319 407 l 383 407 l 675 41 l 970 41 m 970 728 l 970 251 l 929 251 l 929 728 l 970 728 m 81 728 l 81 251 l 41 251 l 41 728 l 81 728 z "},"M":{"ha":1105,"x_min":41,"x_max":1105,"o":"m 41 979 l 359 979 l 574 572 l 787 979 l 1105 979 l 1105 939 l 810 939 l 586 515 l 562 515 l 336 939 l 41 939 l 41 979 m 1105 41 l 1105 0 l 787 0 l 787 407 l 582 0 l 564 0 l 359 407 l 359 0 l 41 0 l 41 41 l 319 41 l 319 452 l 381 452 l 571 57 l 764 448 l 827 448 l 827 41 l 1105 41 m 1105 728 l 1105 251 l 1065 251 l 1065 728 l 1105 728 m 81 728 l 81 251 l 41 251 l 41 728 l 81 728 z "},"<":{"ha":0,"x_min":-1109,"x_max":0,"o":"m -1109 -56 l 0 -56 l 0 -96 l -1109 -96 l -1109 -56 m -1109 -307 l 0 -307 l 0 -347 l -1109 -347 l -1109 -307 z "},">":{"ha":0,"x_min":0,"x_max":1109,"o":"m 1109 -96 l 0 -96 l 0 -56 l 1109 -56 l 1109 -96 m 1109 -347 l 0 -347 l 0 -307 l 1109 -307 l 1109 -347 z "},"?":{"ha":798,"x_min":57,"x_max":741,"o":"m 448 403 q 481 475 446 435 q 579 568 515 515 q 669 656 643 620 q 700 760 696 693 q 644 876 693 830 q 517 939 594 921 q 359 955 439 956 q 216 943 282 956 q 98 905 149 929 l 98 766 q 155 782 114 773 q 252 792 195 791 q 382 774 334 796 q 431 694 430 753 q 393 608 430 637 q 327 557 357 579 q 273 496 297 534 q 241 403 250 457 l 448 403 m 192 261 l 494 261 l 494 0 l 192 0 l 192 261 m 232 226 l 232 38 l 456 38 l 456 226 l 232 226 m 482 363 l 204 363 q 236 511 210 460 q 297 588 262 562 q 360 636 331 613 q 390 694 390 659 q 355 741 390 730 q 253 751 319 751 q 151 738 206 751 q 57 705 96 724 l 57 945 q 207 983 137 970 q 359 996 277 996 q 529 976 442 996 q 678 904 616 957 q 741 760 741 851 q 708 643 741 689 q 608 542 675 596 q 512 452 541 488 q 482 363 482 417 z "},"‘":{"ha":439,"x_min":115,"x_max":323,"o":"m 321 553 m 283 659 l 283 939 l 156 939 l 156 788 l 283 659 m 323 552 l 115 765 l 115 979 l 323 979 l 323 552 z "},"’":{"ha":439,"x_min":115,"x_max":323,"o":"m 282 788 l 282 939 l 155 939 l 155 659 l 282 788 m 115 979 l 323 979 l 323 765 l 115 552 l 115 979 z "},"“":{"ha":772,"x_min":134,"x_max":639,"o":"m 637 553 m 340 553 m 342 552 l 134 765 l 134 979 l 342 979 l 342 552 m 639 552 l 431 765 l 431 979 l 639 979 l 639 552 m 598 659 l 598 939 l 471 939 l 471 788 l 598 659 m 301 659 l 301 939 l 174 939 l 174 788 l 301 659 z "},"”":{"ha":772,"x_min":133,"x_max":638,"o":"m 430 979 l 638 979 l 638 765 l 430 552 l 430 979 m 133 979 l 341 979 l 341 765 l 133 552 l 133 979 m 300 788 l 300 939 l 174 939 l 174 659 l 300 788 m 597 788 l 597 939 l 471 939 l 471 659 l 597 788 z "},"„":{"ha":1118,"x_min":7,"x_max":1118,"o":"m 802 324 l 671 324 l 671 496 l 1118 496 l 1118 0 l 882 0 l 882 80 q 820 26 859 47 q 718 -6 781 5 q 587 -17 654 -17 q 364 15 469 -19 q 180 114 260 49 q 53 257 100 179 q 7 504 7 334 q 53 716 7 623 q 179 872 98 810 q 365 965 260 934 q 587 996 469 996 q 801 958 691 993 q 972 861 911 922 q 1061 731 1033 800 q 1099 627 1090 662 l 804 627 q 707 730 753 711 q 607 749 661 749 q 507 731 553 749 q 433 684 460 713 q 385 612 406 654 q 360 486 363 570 q 394 345 360 396 q 470 269 428 293 q 581 237 512 244 q 703 248 649 231 q 802 324 756 264 m 847 324 q 772 236 818 263 q 686 200 727 209 q 591 194 644 191 q 472 221 538 197 q 363 307 406 245 q 319 486 320 369 q 346 632 323 587 q 402 713 369 677 q 497 769 435 748 q 608 790 560 791 q 692 778 656 789 q 748 752 728 766 q 785 720 769 739 q 827 667 802 701 l 1040 667 q 1012 737 1031 696 q 941 831 992 777 q 789 919 889 884 q 587 955 688 953 q 375 925 473 956 q 208 842 277 895 q 94 706 138 790 q 47 504 50 622 q 125 228 42 342 q 352 65 209 114 q 587 24 494 17 q 760 44 709 25 q 835 81 811 62 q 882 121 859 100 l 923 121 l 923 41 l 1078 41 l 1078 456 l 711 456 l 711 365 l 847 365 l 847 324 z "},"†":{"ha":1119,"x_min":7,"x_max":1113,"o":"m 776 358 l 1113 358 q 1029 212 1109 326 q 840 42 949 98 q 587 -17 732 -14 q 292 41 424 -17 q 83 217 159 100 q 7 504 7 334 q 53 716 7 623 q 179 872 98 810 q 365 965 260 934 q 587 996 469 996 q 786 966 694 996 q 951 871 878 936 q 1067 718 1025 806 q 1113 597 1109 629 l 776 597 q 734 695 765 665 q 681 736 704 726 q 610 746 659 746 q 511 730 561 746 q 433 684 460 713 q 390 617 406 654 q 366 486 374 581 q 409 339 374 391 q 496 263 444 288 q 597 236 547 239 q 673 241 648 233 q 732 275 699 250 q 776 358 766 300 m 811 318 q 765 254 802 285 q 688 210 728 222 q 596 199 648 197 q 486 228 545 202 q 379 312 427 254 q 326 486 330 371 q 350 633 331 589 q 402 713 369 677 q 496 766 435 748 q 603 784 557 784 q 686 773 650 785 q 745 743 723 761 q 787 700 767 726 q 811 637 807 673 l 1051 637 q 1010 736 1041 688 q 913 842 979 783 q 768 927 848 901 q 587 955 688 953 q 375 925 473 956 q 208 842 277 895 q 94 706 138 790 q 47 504 50 622 q 121 227 42 342 q 347 64 200 111 q 587 24 494 17 q 800 75 692 24 q 974 204 909 125 q 1051 318 1039 284 l 811 318 z "},"À":{"ha":1012,"x_min":41,"x_max":1012,"o":"m 41 41 l 292 41 l 354 217 l 699 217 l 761 41 l 1012 41 l 1012 0 l 734 0 l 671 176 l 381 176 l 319 0 l 41 0 l 41 41 m 1004 292 l 1012 292 l 1012 251 l 971 251 l 750 939 l 323 939 l 83 251 l 41 251 l 41 292 l 49 292 l 289 979 l 784 979 l 1004 292 m 534 777 l 673 374 l 384 374 l 534 777 m 448 415 l 609 415 l 534 633 l 448 415 m 181 1221 l 494 1221 l 614 1005 l 181 1221 m 326 1181 l 543 1080 l 476 1181 l 326 1181 z "},"à":{"ha":1095,"x_min":0,"x_max":1136,"o":"m 0 0 l 322 979 l 808 979 l 1136 0 l 766 0 l 704 176 l 413 176 l 351 0 l 0 0 m 566 777 l 705 374 l 416 374 l 566 777 m 57 41 l 324 41 l 387 217 l 736 217 l 800 41 l 1080 41 l 782 939 l 356 939 l 57 41 m 480 415 l 642 415 l 567 633 l 480 415 m 208 1218 l 522 1218 l 641 1002 l 208 1218 m 342 1181 l 559 1080 l 492 1181 l 342 1181 z "},"Á":{"ha":1012,"x_min":41,"x_max":1012,"o":"m 41 41 l 292 41 l 354 217 l 699 217 l 761 41 l 1012 41 l 1012 0 l 734 0 l 671 176 l 381 176 l 319 0 l 41 0 l 41 41 m 1004 292 l 1012 292 l 1012 251 l 971 251 l 750 939 l 323 939 l 83 251 l 41 251 l 41 292 l 49 292 l 289 979 l 784 979 l 1004 292 m 534 777 l 673 374 l 384 374 l 534 777 m 448 415 l 609 415 l 534 633 l 448 415 m 465 1002 l 584 1218 l 897 1218 l 465 1002 m 612 1181 l 548 1080 l 758 1181 l 612 1181 z "},"á":{"ha":1095,"x_min":0,"x_max":1136,"o":"m 0 0 l 322 979 l 808 979 l 1136 0 l 766 0 l 704 176 l 413 176 l 351 0 l 0 0 m 566 777 l 705 374 l 416 374 l 566 777 m 57 41 l 324 41 l 387 217 l 736 217 l 800 41 l 1080 41 l 782 939 l 356 939 l 57 41 m 480 415 l 642 415 l 567 633 l 480 415 m 505 1002 l 625 1218 l 938 1218 l 505 1002 m 650 1181 l 586 1080 l 796 1181 l 650 1181 z "},"Â":{"ha":1012,"x_min":41,"x_max":1012,"o":"m 41 41 l 292 41 l 354 217 l 699 217 l 761 41 l 1012 41 l 1012 0 l 734 0 l 671 176 l 381 176 l 319 0 l 41 0 l 41 41 m 1004 292 l 1012 292 l 1012 251 l 971 251 l 750 939 l 323 939 l 83 251 l 41 251 l 41 292 l 49 292 l 289 979 l 784 979 l 1004 292 m 534 777 l 673 374 l 384 374 l 534 777 m 448 415 l 609 415 l 534 633 l 448 415 m 723 998 l 535 1116 l 345 1000 l 345 1040 l 534 1232 l 723 1040 l 723 998 m 532 1156 l 665 1074 l 532 1191 l 403 1069 l 532 1156 z "},"â":{"ha":1095,"x_min":0,"x_max":1136,"o":"m 0 0 l 322 979 l 808 979 l 1136 0 l 766 0 l 704 176 l 413 176 l 351 0 l 0 0 m 566 777 l 705 374 l 416 374 l 566 777 m 57 41 l 324 41 l 387 217 l 736 217 l 800 41 l 1080 41 l 782 939 l 356 939 l 57 41 m 480 415 l 642 415 l 567 633 l 480 415 m 755 998 l 568 1116 l 378 1000 l 378 1040 l 566 1232 l 755 1040 l 755 998 m 564 1150 l 697 1069 l 564 1185 l 435 1063 l 564 1150 z "},"Ã":{"ha":1012,"x_min":41,"x_max":1012,"o":"m 41 41 l 292 41 l 354 217 l 699 217 l 761 41 l 1012 41 l 1012 0 l 734 0 l 671 176 l 381 176 l 319 0 l 41 0 l 41 41 m 1004 292 l 1012 292 l 1012 251 l 971 251 l 750 939 l 323 939 l 83 251 l 41 251 l 41 292 l 49 292 l 289 979 l 784 979 l 1004 292 m 534 777 l 673 374 l 384 374 l 534 777 m 448 415 l 609 415 l 534 633 l 448 415 m 380 1169 q 462 1156 423 1166 q 566 1076 500 1145 q 708 1085 631 1006 q 592 1075 627 1057 q 503 1151 557 1093 q 380 1169 449 1208 m 789 1109 q 513 1076 627 952 q 341 1086 399 1199 l 300 1118 q 519 1171 400 1301 q 738 1137 637 1042 l 789 1109 z "},"ã":{"ha":1095,"x_min":0,"x_max":1136,"o":"m 0 0 l 322 979 l 808 979 l 1136 0 l 766 0 l 704 176 l 413 176 l 351 0 l 0 0 m 566 777 l 705 374 l 416 374 l 566 777 m 57 41 l 324 41 l 387 217 l 736 217 l 800 41 l 1080 41 l 782 939 l 356 939 l 57 41 m 480 415 l 642 415 l 567 633 l 480 415 m 410 1169 q 492 1156 453 1166 q 595 1076 530 1145 q 738 1085 661 1006 q 622 1075 656 1057 q 533 1151 587 1093 q 410 1169 479 1208 m 819 1109 q 543 1076 656 952 q 371 1086 429 1199 l 330 1118 q 549 1171 430 1301 q 768 1137 667 1042 l 819 1109 z "},"Ä":{"ha":1012,"x_min":41,"x_max":1012,"o":"m 41 41 l 292 41 l 354 217 l 699 217 l 761 41 l 1012 41 l 1012 0 l 734 0 l 671 176 l 381 176 l 319 0 l 41 0 l 41 41 m 1004 292 l 1012 292 l 1012 251 l 971 251 l 750 939 l 323 939 l 83 251 l 41 251 l 41 292 l 49 292 l 289 979 l 784 979 l 1004 292 m 534 777 l 673 374 l 384 374 l 534 777 m 448 415 l 609 415 l 534 633 l 448 415 m 428 1196 q 485 1174 463 1196 q 507 1117 507 1151 q 480 1055 503 1076 q 424 1034 458 1034 q 369 1056 391 1034 q 347 1112 347 1078 q 369 1173 347 1150 q 428 1196 391 1196 m 645 1199 q 702 1176 680 1199 q 724 1120 724 1154 q 697 1057 720 1078 q 641 1036 675 1036 q 586 1059 608 1036 q 564 1115 564 1081 q 586 1176 564 1153 q 645 1199 608 1199 m 428 1157 q 394 1144 407 1157 q 382 1110 382 1132 q 394 1079 382 1091 q 425 1066 407 1066 q 458 1078 445 1066 q 473 1113 471 1090 q 460 1144 473 1132 q 428 1157 448 1157 m 645 1160 q 611 1147 624 1160 q 599 1113 599 1135 q 611 1081 599 1094 q 642 1069 624 1069 q 675 1081 662 1069 q 690 1116 688 1093 q 677 1147 690 1135 q 645 1160 665 1160 z "},"ä":{"ha":1095,"x_min":0,"x_max":1136,"o":"m 0 0 l 322 979 l 808 979 l 1136 0 l 766 0 l 704 176 l 413 176 l 351 0 l 0 0 m 566 777 l 705 374 l 416 374 l 566 777 m 57 41 l 324 41 l 387 217 l 736 217 l 800 41 l 1080 41 l 782 939 l 356 939 l 57 41 m 480 415 l 642 415 l 567 633 l 480 415 m 455 1196 q 512 1174 490 1196 q 534 1117 534 1151 q 508 1055 530 1076 q 451 1034 485 1034 q 396 1056 418 1034 q 374 1112 374 1078 q 396 1173 374 1150 q 455 1196 418 1196 m 679 1196 q 735 1174 713 1196 q 758 1117 758 1151 q 731 1055 754 1076 q 675 1034 709 1034 q 620 1056 642 1034 q 597 1112 597 1078 q 620 1173 597 1150 q 679 1196 642 1196 m 455 1157 q 421 1144 434 1157 q 409 1110 409 1132 q 421 1079 409 1091 q 452 1066 434 1066 q 485 1078 472 1066 q 500 1113 498 1090 q 487 1144 500 1132 q 455 1157 475 1157 m 680 1157 q 647 1144 659 1157 q 634 1110 634 1132 q 647 1079 634 1091 q 677 1066 659 1066 q 710 1078 697 1066 q 725 1113 723 1090 q 712 1144 725 1132 q 680 1157 700 1157 z "},"Å":{"ha":1012,"x_min":41,"x_max":1012,"o":"m 41 41 l 292 41 l 354 217 l 699 217 l 761 41 l 1012 41 l 1012 0 l 734 0 l 671 176 l 381 176 l 319 0 l 41 0 l 41 41 m 1004 292 l 1012 292 l 1012 251 l 971 251 l 750 939 l 323 939 l 83 251 l 41 251 l 41 292 l 49 292 l 289 979 l 784 979 l 1004 292 m 534 777 l 673 374 l 384 374 l 534 777 m 448 415 l 609 415 l 534 633 l 448 415 m 533 1253 q 626 1216 589 1253 q 663 1124 663 1179 q 623 1028 663 1068 q 527 989 583 989 q 436 1025 473 989 q 399 1116 399 1061 q 437 1216 399 1178 q 533 1253 474 1253 m 530 1199 q 471 1176 493 1199 q 448 1115 448 1153 q 471 1059 448 1081 q 526 1036 493 1036 q 582 1057 559 1036 q 608 1120 605 1078 q 586 1176 608 1154 q 530 1199 564 1199 z "},"å":{"ha":1095,"x_min":0,"x_max":1136,"o":"m 0 0 l 322 979 l 808 979 l 1136 0 l 766 0 l 704 176 l 413 176 l 351 0 l 0 0 m 566 777 l 705 374 l 416 374 l 566 777 m 57 41 l 324 41 l 387 217 l 736 217 l 800 41 l 1080 41 l 782 939 l 356 939 l 57 41 m 480 415 l 642 415 l 567 633 l 480 415 m 566 1253 q 659 1216 622 1253 q 696 1124 696 1179 q 655 1028 696 1068 q 559 989 615 989 q 469 1025 506 989 q 432 1116 432 1061 q 469 1216 432 1178 q 566 1253 507 1253 m 568 1199 q 509 1176 531 1199 q 486 1115 486 1153 q 509 1059 486 1081 q 564 1036 531 1036 q 620 1057 597 1036 q 646 1120 643 1078 q 624 1176 646 1154 q 568 1199 602 1199 z "},"Æ":{"ha":1420,"x_min":41,"x_max":1420,"o":"m 575 814 l 393 374 l 575 374 l 575 814 m 448 415 l 540 628 l 540 415 l 448 415 m 700 939 l 323 939 l 81 251 l 41 251 l 41 292 l 49 292 l 289 979 l 1378 979 l 1378 688 l 857 688 l 857 575 l 1194 575 l 1194 404 l 857 404 l 857 292 l 1420 292 l 1420 251 l 817 251 l 817 444 l 1153 444 l 1153 534 l 817 534 l 817 728 l 1337 728 l 1337 939 l 700 939 m 41 41 l 292 41 l 351 217 l 575 217 l 575 41 l 1420 41 l 1420 0 l 534 0 l 534 176 l 380 176 l 319 0 l 41 0 l 41 41 z "},"æ":{"ha":1436,"x_min":-16,"x_max":1436,"o":"m 591 814 l 410 374 l 591 374 l 591 814 m 551 0 l 551 176 l 397 176 l 335 0 l -16 0 l 306 979 l 1394 979 l 1394 688 l 873 688 l 873 575 l 1210 575 l 1210 404 l 873 404 l 873 292 l 1436 292 l 1436 0 l 551 0 m 464 415 l 556 628 l 556 415 l 464 415 m 716 939 l 336 939 l 37 41 l 304 41 l 367 217 l 591 217 l 591 41 l 1396 41 l 1396 251 l 833 251 l 833 444 l 1169 444 l 1169 534 l 833 534 l 833 728 l 1354 728 l 1354 939 l 716 939 z "},"Ç":{"ha":1006,"x_min":7,"x_max":1006,"o":"m 1006 939 l 572 939 q 369 912 461 937 q 205 831 277 887 q 92 694 134 776 q 47 504 50 613 q 117 247 46 350 q 307 94 187 144 q 551 42 426 43 l 551 -113 q 625 -142 581 -115 q 673 -222 669 -170 q 657 -283 674 -262 q 567 -320 640 -305 q 680 -290 643 -312 q 732 -250 716 -269 q 750 -201 747 -231 q 706 -134 745 -156 q 606 -100 667 -113 l 606 41 l 1006 41 l 1006 0 l 650 0 l 650 -76 q 758 -122 722 -90 q 793 -201 793 -155 q 724 -310 793 -263 q 547 -356 655 -356 q 439 -351 504 -356 l 449 -292 q 517 -301 477 -300 q 609 -280 585 -301 q 633 -222 633 -259 q 606 -178 633 -197 q 541 -159 580 -159 q 511 -161 529 -159 l 510 3 q 284 57 413 0 q 81 227 155 113 q 7 504 7 340 q 51 710 7 619 q 174 860 96 800 q 355 950 253 920 q 572 979 457 979 l 841 979 l 1006 979 l 1006 939 m 1006 728 l 1006 688 l 700 688 q 547 682 597 688 q 459 661 498 675 q 391 612 420 647 q 356 487 361 576 q 391 363 359 400 q 467 313 422 326 q 559 296 511 301 q 700 292 606 292 l 1006 292 l 1006 251 l 700 251 q 553 256 608 250 q 446 276 499 262 q 357 339 393 290 q 315 487 321 388 q 361 640 323 601 q 444 696 400 678 q 542 720 488 713 q 700 728 596 726 l 1006 728 z "},"ç":{"ha":1006,"x_min":7,"x_max":1006,"o":"m 510 3 q 284 57 413 0 q 81 227 155 113 q 7 504 7 340 q 51 710 7 619 q 174 860 96 800 q 355 950 253 920 q 572 979 457 979 l 841 979 l 1006 979 l 1006 688 l 700 688 q 547 682 597 688 q 459 661 498 675 q 391 612 420 647 q 356 487 361 576 q 391 363 359 400 q 467 313 422 326 q 559 296 511 301 q 700 292 606 292 l 1006 292 l 1006 0 l 650 0 l 650 -76 q 758 -122 722 -90 q 793 -201 793 -155 q 724 -310 793 -263 q 547 -356 655 -356 q 439 -351 504 -356 l 449 -292 q 517 -301 477 -300 q 609 -280 585 -301 q 633 -222 633 -259 q 606 -178 633 -197 q 541 -159 580 -159 q 511 -161 529 -159 l 510 3 m 966 939 l 572 939 q 369 912 461 937 q 205 831 277 887 q 92 694 134 776 q 47 504 50 613 q 117 247 46 350 q 307 94 187 144 q 551 42 426 43 l 551 -113 q 625 -142 581 -115 q 673 -222 669 -170 q 657 -283 674 -262 q 567 -320 640 -305 q 680 -290 643 -312 q 732 -250 716 -269 q 750 -201 747 -231 q 706 -134 745 -156 q 606 -100 667 -113 l 606 41 l 769 41 l 966 41 l 966 251 l 700 251 q 553 256 608 250 q 446 276 499 262 q 357 339 393 290 q 315 487 321 388 q 361 640 323 601 q 444 696 400 678 q 542 720 488 713 q 700 728 596 726 l 966 728 l 966 939 z "},"È":{"ha":922,"x_min":41,"x_max":922,"o":"m 41 939 l 41 979 l 882 979 l 882 939 l 41 939 m 81 251 l 41 251 l 41 728 l 81 728 l 81 251 m 882 728 l 882 688 l 359 688 l 359 575 l 696 575 l 696 404 l 359 404 l 359 292 l 922 292 l 922 251 l 319 251 l 319 444 l 655 444 l 655 534 l 319 534 l 319 728 l 882 728 m 922 41 l 922 0 l 41 0 l 41 41 l 922 41 m 138 1218 l 451 1218 l 570 1002 l 138 1218 m 277 1181 l 494 1080 l 427 1181 l 277 1181 z "},"è":{"ha":922,"x_min":41,"x_max":922,"o":"m 41 0 l 41 979 l 880 979 l 880 688 l 359 688 l 359 575 l 696 575 l 696 404 l 359 404 l 359 292 l 922 292 l 922 0 l 41 0 m 138 1218 l 451 1218 l 570 1002 l 138 1218 m 81 939 l 81 41 l 882 41 l 882 251 l 319 251 l 319 444 l 655 444 l 655 534 l 319 534 l 319 728 l 840 728 l 840 939 l 81 939 m 277 1181 l 494 1080 l 427 1181 l 277 1181 z "},"É":{"ha":922,"x_min":41,"x_max":922,"o":"m 41 939 l 41 979 l 882 979 l 882 939 l 41 939 m 81 251 l 41 251 l 41 728 l 81 728 l 81 251 m 882 728 l 882 688 l 359 688 l 359 575 l 696 575 l 696 404 l 359 404 l 359 292 l 922 292 l 922 251 l 319 251 l 319 444 l 655 444 l 655 534 l 319 534 l 319 728 l 882 728 m 922 41 l 922 0 l 41 0 l 41 41 l 922 41 m 456 1002 l 576 1218 l 889 1218 l 456 1002 m 601 1181 l 537 1080 l 747 1181 l 601 1181 z "},"é":{"ha":922,"x_min":41,"x_max":922,"o":"m 41 0 l 41 979 l 880 979 l 880 688 l 359 688 l 359 575 l 696 575 l 696 404 l 359 404 l 359 292 l 922 292 l 922 0 l 41 0 m 456 1002 l 576 1218 l 889 1218 l 456 1002 m 81 939 l 81 41 l 882 41 l 882 251 l 319 251 l 319 444 l 655 444 l 655 534 l 319 534 l 319 728 l 840 728 l 840 939 l 81 939 m 601 1181 l 537 1080 l 747 1181 l 601 1181 z "},"Ê":{"ha":922,"x_min":41,"x_max":922,"o":"m 41 939 l 41 979 l 882 979 l 882 939 l 41 939 m 81 251 l 41 251 l 41 728 l 81 728 l 81 251 m 882 728 l 882 688 l 359 688 l 359 575 l 696 575 l 696 404 l 359 404 l 359 292 l 922 292 l 922 251 l 319 251 l 319 444 l 655 444 l 655 534 l 319 534 l 319 728 l 882 728 m 922 41 l 922 0 l 41 0 l 41 41 l 922 41 m 699 998 l 511 1116 l 321 1000 l 321 1040 l 509 1232 l 699 1040 l 699 998 m 510 1150 l 643 1069 l 510 1185 l 381 1063 l 510 1150 z "},"ê":{"ha":922,"x_min":41,"x_max":922,"o":"m 41 0 l 41 979 l 880 979 l 880 688 l 359 688 l 359 575 l 696 575 l 696 404 l 359 404 l 359 292 l 922 292 l 922 0 l 41 0 m 699 998 l 511 1116 l 321 1000 l 321 1040 l 509 1232 l 699 1040 l 699 998 m 81 939 l 81 41 l 882 41 l 882 251 l 319 251 l 319 444 l 655 444 l 655 534 l 319 534 l 319 728 l 840 728 l 840 939 l 81 939 m 510 1150 l 643 1069 l 510 1185 l 381 1063 l 510 1150 z "},"Ë":{"ha":922,"x_min":41,"x_max":922,"o":"m 41 939 l 41 979 l 882 979 l 882 939 l 41 939 m 81 251 l 41 251 l 41 728 l 81 728 l 81 251 m 882 728 l 882 688 l 359 688 l 359 575 l 696 575 l 696 404 l 359 404 l 359 292 l 922 292 l 922 251 l 319 251 l 319 444 l 655 444 l 655 534 l 319 534 l 319 728 l 882 728 m 922 41 l 922 0 l 41 0 l 41 41 l 922 41 m 382 1196 q 438 1174 416 1196 q 460 1117 460 1151 q 434 1055 457 1076 q 378 1034 412 1034 q 323 1056 345 1034 q 300 1112 300 1078 q 323 1173 300 1150 q 382 1196 345 1196 m 638 1196 q 695 1174 673 1196 q 717 1117 717 1151 q 691 1055 713 1076 q 634 1034 668 1034 q 579 1056 602 1034 q 557 1112 557 1078 q 579 1173 557 1150 q 638 1196 602 1196 m 382 1157 q 348 1144 361 1157 q 336 1110 336 1132 q 348 1079 336 1091 q 379 1066 361 1066 q 412 1078 399 1066 q 427 1113 425 1090 q 414 1144 427 1132 q 382 1157 401 1157 m 638 1158 q 605 1146 617 1158 q 592 1112 592 1133 q 605 1080 592 1093 q 635 1067 617 1067 q 668 1079 655 1067 q 683 1114 681 1091 q 670 1146 683 1133 q 638 1158 658 1158 z "},"ë":{"ha":922,"x_min":41,"x_max":922,"o":"m 41 0 l 41 979 l 880 979 l 880 688 l 359 688 l 359 575 l 696 575 l 696 404 l 359 404 l 359 292 l 922 292 l 922 0 l 41 0 m 382 1196 q 438 1174 416 1196 q 460 1117 460 1151 q 434 1055 457 1076 q 378 1034 412 1034 q 323 1056 345 1034 q 300 1112 300 1078 q 323 1173 300 1150 q 382 1196 345 1196 m 638 1196 q 695 1174 673 1196 q 717 1117 717 1151 q 691 1055 713 1076 q 634 1034 668 1034 q 579 1056 602 1034 q 557 1112 557 1078 q 579 1173 557 1150 q 638 1196 602 1196 m 81 939 l 81 41 l 882 41 l 882 251 l 319 251 l 319 444 l 655 444 l 655 534 l 319 534 l 319 728 l 840 728 l 840 939 l 81 939 m 382 1160 q 348 1147 361 1160 q 336 1113 336 1135 q 348 1081 336 1094 q 379 1069 361 1069 q 412 1081 399 1069 q 427 1116 425 1093 q 414 1147 427 1135 q 382 1160 401 1160 m 638 1161 q 605 1148 617 1161 q 592 1114 592 1136 q 605 1083 592 1095 q 635 1070 617 1070 q 668 1082 655 1070 q 683 1117 681 1094 q 670 1148 683 1136 q 638 1161 658 1161 z "},"Ì":{"ha":373,"x_min":18,"x_max":346,"o":"m 27 979 l 346 979 l 346 0 l 27 0 l 27 979 m 18 1218 l 269 1218 l 346 1004 l 18 1218 m 68 939 l 68 41 l 305 41 l 305 939 l 68 939 m 114 1184 l 290 1082 l 236 1184 l 114 1184 z "},"ì":{"ha":373,"x_min":18,"x_max":346,"o":"m 27 979 l 346 979 l 346 0 l 27 0 l 27 979 m 18 1218 l 269 1218 l 346 1004 l 18 1218 m 68 939 l 68 41 l 305 41 l 305 939 l 68 939 m 114 1184 l 290 1082 l 236 1184 l 114 1184 z "},"Í":{"ha":373,"x_min":18,"x_max":346,"o":"m 345 979 l 345 0 l 27 0 l 27 979 l 345 979 m 18 1004 l 94 1218 l 346 1218 l 18 1004 m 68 939 l 68 41 l 305 41 l 305 939 l 68 939 m 127 1184 l 77 1082 l 241 1184 l 127 1184 z "},"í":{"ha":373,"x_min":18,"x_max":346,"o":"m 345 979 l 345 0 l 27 0 l 27 979 l 345 979 m 18 1004 l 94 1218 l 346 1218 l 18 1004 m 68 939 l 68 41 l 305 41 l 305 939 l 68 939 m 127 1184 l 77 1082 l 241 1184 l 127 1184 z "},"Î":{"ha":373,"x_min":27,"x_max":346,"o":"m 27 979 l 346 979 l 346 0 l 27 0 l 27 979 m 340 1002 l 186 1120 l 31 1004 l 31 1044 l 185 1236 l 340 1044 l 340 1002 m 68 939 l 68 41 l 305 41 l 305 939 l 68 939 m 184 1156 l 293 1074 l 184 1191 l 80 1069 l 184 1156 z "},"î":{"ha":373,"x_min":27,"x_max":346,"o":"m 27 979 l 346 979 l 346 0 l 27 0 l 27 979 m 340 1002 l 186 1120 l 31 1004 l 31 1044 l 185 1236 l 340 1044 l 340 1002 m 68 939 l 68 41 l 305 41 l 305 939 l 68 939 m 184 1156 l 293 1074 l 184 1191 l 80 1069 l 184 1156 z "},"Ï":{"ha":373,"x_min":2,"x_max":374,"o":"m 27 979 l 346 979 l 346 0 l 27 0 l 27 979 m 83 1196 q 140 1174 118 1196 q 162 1117 162 1151 q 136 1055 159 1076 q 79 1034 113 1034 q 24 1056 47 1034 q 2 1112 2 1078 q 24 1173 2 1150 q 83 1196 47 1196 m 295 1196 q 352 1174 330 1196 q 374 1117 374 1151 q 348 1055 370 1076 q 291 1034 325 1034 q 236 1056 258 1034 q 214 1112 214 1078 q 236 1173 214 1150 q 295 1196 258 1196 m 68 939 l 68 41 l 305 41 l 305 939 l 68 939 m 83 1157 q 50 1144 62 1157 q 37 1110 37 1132 q 50 1079 37 1091 q 81 1066 62 1066 q 113 1078 100 1066 q 128 1113 126 1090 q 116 1144 128 1132 q 83 1157 103 1157 m 295 1157 q 261 1144 274 1157 q 249 1110 249 1132 q 261 1079 249 1091 q 292 1066 274 1066 q 325 1078 312 1066 q 340 1113 338 1090 q 327 1144 340 1132 q 295 1157 315 1157 z "},"ï":{"ha":373,"x_min":2,"x_max":374,"o":"m 27 979 l 346 979 l 346 0 l 27 0 l 27 979 m 83 1196 q 140 1174 118 1196 q 162 1117 162 1151 q 136 1055 159 1076 q 79 1034 113 1034 q 24 1056 47 1034 q 2 1112 2 1078 q 24 1173 2 1150 q 83 1196 47 1196 m 295 1196 q 352 1174 330 1196 q 374 1117 374 1151 q 348 1055 370 1076 q 291 1034 325 1034 q 236 1056 258 1034 q 214 1112 214 1078 q 236 1173 214 1150 q 295 1196 258 1196 m 68 939 l 68 41 l 305 41 l 305 939 l 68 939 m 83 1157 q 50 1144 62 1157 q 37 1110 37 1132 q 50 1079 37 1091 q 81 1066 62 1066 q 113 1078 100 1066 q 128 1113 126 1090 q 116 1144 128 1132 q 83 1157 103 1157 m 295 1157 q 261 1144 274 1157 q 249 1110 249 1132 q 261 1079 249 1091 q 292 1066 274 1066 q 325 1078 312 1066 q 340 1113 338 1090 q 327 1144 340 1132 q 295 1157 315 1157 z "},"Ð":{"ha":1223,"x_min":-28,"x_max":1223,"o":"m 144 0 l 144 368 l -28 368 l -28 538 l 144 538 l 144 979 l 722 979 q 928 948 839 979 q 1080 864 1018 917 q 1182 721 1141 811 q 1223 486 1223 631 q 1179 259 1216 353 q 1080 111 1141 165 q 929 27 1018 57 q 705 0 840 -3 l 144 0 m 471 736 l 656 736 q 760 710 720 736 q 826 636 800 683 q 853 490 851 589 q 822 339 846 381 q 759 271 798 298 q 657 244 720 244 l 471 244 l 469 412 l 659 412 l 659 499 l 469 499 l 471 736 m 184 41 l 705 41 q 938 73 868 45 q 1054 143 1008 100 q 1139 269 1100 186 q 1183 490 1179 353 q 1163 660 1177 621 q 1126 743 1149 699 q 1057 833 1104 787 q 924 910 1009 879 q 722 939 840 941 l 184 939 l 184 490 l 14 491 l 14 412 l 184 412 l 184 41 m 511 699 l 510 540 l 705 540 l 705 369 l 510 369 l 511 283 l 652 283 q 739 309 711 285 q 780 362 766 334 q 802 490 794 390 q 781 611 796 575 q 736 672 765 647 q 650 699 708 698 l 511 699 z "},"ð":{"ha":1223,"x_min":-28,"x_max":1223,"o":"m 144 0 l 144 368 l -28 368 l -28 538 l 144 538 l 144 979 l 722 979 q 928 948 839 979 q 1080 864 1018 917 q 1182 721 1141 811 q 1223 486 1223 631 q 1179 259 1216 353 q 1080 111 1141 165 q 929 27 1018 57 q 705 0 840 -3 l 144 0 m 471 736 l 656 736 q 760 710 720 736 q 826 636 800 683 q 853 490 851 589 q 822 339 846 381 q 759 271 798 298 q 657 244 720 244 l 471 244 l 469 412 l 659 412 l 659 499 l 469 499 l 471 736 m 184 41 l 705 41 q 938 73 868 45 q 1054 143 1008 100 q 1139 269 1100 186 q 1183 490 1179 353 q 1163 660 1177 621 q 1126 743 1149 699 q 1057 833 1104 787 q 924 910 1009 879 q 722 939 840 941 l 184 939 l 184 490 l 14 491 l 14 412 l 184 412 l 184 41 m 511 699 l 510 540 l 705 540 l 705 369 l 510 369 l 511 283 l 652 283 q 739 309 711 285 q 780 362 766 334 q 802 490 794 390 q 781 611 796 575 q 736 672 765 647 q 650 699 708 698 l 511 699 z "},"Ñ":{"ha":970,"x_min":41,"x_max":970,"o":"m 41 939 l 41 979 l 359 979 l 651 613 l 651 979 l 970 979 l 970 939 l 692 939 l 692 574 l 627 574 l 342 939 l 41 939 m 970 41 l 970 0 l 651 0 l 359 366 l 359 0 l 41 0 l 41 41 l 319 41 l 319 407 l 383 407 l 675 41 l 970 41 m 970 728 l 970 251 l 929 251 l 929 728 l 970 728 m 81 728 l 81 251 l 41 251 l 41 728 l 81 728 m 722 1104 q 445 1070 559 947 q 273 1080 331 1194 l 233 1112 q 451 1166 332 1295 q 670 1131 570 1036 l 722 1104 m 309 1169 q 391 1156 353 1166 q 495 1076 430 1145 q 637 1085 560 1006 q 522 1075 556 1057 q 433 1151 487 1093 q 309 1169 378 1208 z "},"ñ":{"ha":970,"x_min":41,"x_max":970,"o":"m 41 0 l 41 979 l 359 979 l 651 613 l 651 979 l 970 979 l 970 0 l 651 0 l 359 366 l 359 0 l 41 0 m 81 939 l 81 41 l 319 41 l 319 407 l 383 407 l 675 41 l 929 41 l 929 939 l 692 939 l 692 574 l 627 574 l 342 939 l 81 939 m 722 1104 q 445 1070 559 947 q 273 1080 331 1194 l 233 1112 q 451 1166 332 1295 q 670 1131 570 1036 l 722 1104 m 309 1169 q 391 1156 353 1166 q 495 1076 430 1145 q 637 1085 560 1006 q 522 1075 556 1057 q 433 1151 487 1093 q 309 1169 378 1208 z "},"Ò":{"ha":1137,"x_min":7,"x_max":1131,"o":"m 1131 484 q 1064 210 1131 323 q 870 40 997 97 q 566 -17 743 -17 q 263 40 390 -17 q 72 210 137 98 q 7 484 7 322 q 44 700 7 607 q 153 857 81 793 q 330 954 225 921 q 566 987 434 987 q 869 929 742 987 q 1064 758 997 871 q 1131 484 1131 645 m 138 1218 l 451 1218 l 570 1002 l 138 1218 m 1090 484 q 1026 736 1088 632 q 846 893 964 840 q 566 947 728 947 q 348 916 444 947 q 185 827 252 886 q 84 683 119 769 q 47 485 50 597 q 110 233 50 336 q 287 77 170 130 q 566 24 404 24 q 846 76 729 24 q 1026 233 964 129 q 1090 484 1088 337 m 277 1181 l 494 1080 l 427 1181 l 277 1181 m 330 483 q 560 741 330 741 q 752 664 707 741 q 803 483 798 587 q 785 358 798 410 q 719 266 772 307 q 560 226 667 226 q 376 303 423 226 q 330 483 330 380 m 374 481 q 412 331 374 395 q 563 267 450 267 q 693 300 650 267 q 747 377 736 334 q 762 481 758 420 q 721 631 758 567 q 563 694 683 694 q 374 481 374 694 z "},"ò":{"ha":1137,"x_min":7,"x_max":1131,"o":"m 1131 484 q 1064 210 1131 323 q 870 40 997 97 q 566 -17 743 -17 q 263 40 390 -17 q 72 210 137 98 q 7 484 7 322 q 44 700 7 607 q 153 857 81 793 q 330 954 225 921 q 566 987 434 987 q 869 929 742 987 q 1064 758 997 871 q 1131 484 1131 645 m 138 1218 l 451 1218 l 570 1002 l 138 1218 m 1090 484 q 1026 736 1088 632 q 846 893 964 840 q 566 947 728 947 q 348 916 444 947 q 185 827 252 886 q 84 683 119 769 q 47 485 50 597 q 110 233 50 336 q 287 77 170 130 q 566 24 404 24 q 846 76 729 24 q 1026 233 964 129 q 1090 484 1088 337 m 277 1181 l 494 1080 l 427 1181 l 277 1181 m 330 483 q 560 741 330 741 q 752 664 707 741 q 803 483 798 587 q 785 358 798 410 q 719 266 772 307 q 560 226 667 226 q 376 303 423 226 q 330 483 330 380 m 374 481 q 412 331 374 395 q 563 267 450 267 q 693 300 650 267 q 747 377 736 334 q 762 481 758 420 q 721 631 758 567 q 563 694 683 694 q 374 481 374 694 z "},"Ó":{"ha":1137,"x_min":7,"x_max":1131,"o":"m 1131 484 q 1064 210 1131 323 q 870 40 997 97 q 566 -17 743 -17 q 263 40 390 -17 q 72 210 137 98 q 7 484 7 322 q 44 700 7 607 q 153 857 81 793 q 330 954 225 921 q 566 987 434 987 q 869 929 742 987 q 1064 758 997 871 q 1131 484 1131 645 m 456 1002 l 576 1218 l 889 1218 l 456 1002 m 1090 484 q 1026 736 1088 632 q 846 893 964 840 q 566 947 728 947 q 348 916 444 947 q 185 827 252 886 q 84 683 119 769 q 47 485 50 597 q 110 233 50 336 q 287 77 170 130 q 566 24 404 24 q 846 76 729 24 q 1026 233 964 129 q 1090 484 1088 337 m 601 1181 l 537 1080 l 747 1181 l 601 1181 m 330 483 q 560 741 330 741 q 752 664 707 741 q 803 483 798 587 q 785 358 798 410 q 719 266 772 307 q 560 226 667 226 q 376 303 423 226 q 330 483 330 380 m 374 481 q 412 331 374 395 q 563 267 450 267 q 693 300 650 267 q 747 377 736 334 q 762 481 758 420 q 721 631 758 567 q 563 694 683 694 q 374 481 374 694 z "},"ó":{"ha":1137,"x_min":7,"x_max":1131,"o":"m 1131 484 q 1064 210 1131 323 q 870 40 997 97 q 566 -17 743 -17 q 263 40 390 -17 q 72 210 137 98 q 7 484 7 322 q 44 700 7 607 q 153 857 81 793 q 330 954 225 921 q 566 987 434 987 q 869 929 742 987 q 1064 758 997 871 q 1131 484 1131 645 m 456 1002 l 576 1218 l 889 1218 l 456 1002 m 1090 484 q 1026 736 1088 632 q 846 893 964 840 q 566 947 728 947 q 348 916 444 947 q 185 827 252 886 q 84 683 119 769 q 47 485 50 597 q 110 233 50 336 q 287 77 170 130 q 566 24 404 24 q 846 76 729 24 q 1026 233 964 129 q 1090 484 1088 337 m 601 1181 l 537 1080 l 747 1181 l 601 1181 m 330 483 q 560 741 330 741 q 752 664 707 741 q 803 483 798 587 q 785 358 798 410 q 719 266 772 307 q 560 226 667 226 q 376 303 423 226 q 330 483 330 380 m 374 481 q 412 331 374 395 q 563 267 450 267 q 693 300 650 267 q 747 377 736 334 q 762 481 758 420 q 721 631 758 567 q 563 694 683 694 q 374 481 374 694 z "},"Ô":{"ha":1137,"x_min":7,"x_max":1131,"o":"m 1131 484 q 1064 210 1131 323 q 870 40 997 97 q 566 -17 743 -17 q 263 40 390 -17 q 72 210 137 98 q 7 484 7 322 q 44 700 7 607 q 153 857 81 793 q 330 954 225 921 q 566 987 434 987 q 869 929 742 987 q 1064 758 997 871 q 1131 484 1131 645 m 755 998 l 561 1124 l 364 1001 l 364 1043 l 559 1246 l 755 1043 l 755 998 m 1090 484 q 1026 736 1088 632 q 846 893 964 840 q 566 947 728 947 q 348 916 444 947 q 185 827 252 886 q 84 683 119 769 q 47 485 50 597 q 110 233 50 336 q 287 77 170 130 q 566 24 404 24 q 846 76 729 24 q 1026 233 964 129 q 1090 484 1088 337 m 559 1162 l 692 1076 l 559 1200 l 430 1069 l 559 1162 m 330 483 q 560 741 330 741 q 752 664 707 741 q 803 483 798 587 q 785 358 798 410 q 719 266 772 307 q 560 226 667 226 q 376 303 423 226 q 330 483 330 380 m 374 481 q 412 331 374 395 q 563 267 450 267 q 693 300 650 267 q 747 377 736 334 q 762 481 758 420 q 721 631 758 567 q 563 694 683 694 q 374 481 374 694 z "},"ô":{"ha":1137,"x_min":7,"x_max":1131,"o":"m 1131 484 q 1064 210 1131 323 q 870 40 997 97 q 566 -17 743 -17 q 263 40 390 -17 q 72 210 137 98 q 7 484 7 322 q 44 700 7 607 q 153 857 81 793 q 330 954 225 921 q 566 987 434 987 q 869 929 742 987 q 1064 758 997 871 q 1131 484 1131 645 m 755 998 l 561 1124 l 364 1001 l 364 1043 l 559 1246 l 755 1043 l 755 998 m 1090 484 q 1026 736 1088 632 q 846 893 964 840 q 566 947 728 947 q 348 916 444 947 q 185 827 252 886 q 84 683 119 769 q 47 485 50 597 q 110 233 50 336 q 287 77 170 130 q 566 24 404 24 q 846 76 729 24 q 1026 233 964 129 q 1090 484 1088 337 m 559 1162 l 692 1076 l 559 1200 l 430 1069 l 559 1162 m 330 483 q 560 741 330 741 q 752 664 707 741 q 803 483 798 587 q 785 358 798 410 q 719 266 772 307 q 560 226 667 226 q 376 303 423 226 q 330 483 330 380 m 374 481 q 412 331 374 395 q 563 267 450 267 q 693 300 650 267 q 747 377 736 334 q 762 481 758 420 q 721 631 758 567 q 563 694 683 694 q 374 481 374 694 z "},"Õ":{"ha":1137,"x_min":7,"x_max":1131,"o":"m 1131 484 q 1064 210 1131 323 q 870 40 997 97 q 566 -17 743 -17 q 263 40 390 -17 q 72 210 137 98 q 7 484 7 322 q 44 700 7 607 q 153 857 81 793 q 330 954 225 921 q 566 987 434 987 q 869 929 742 987 q 1064 758 997 871 q 1131 484 1131 645 m 1090 484 q 1026 736 1088 632 q 846 893 964 840 q 566 947 728 947 q 348 916 444 947 q 185 827 252 886 q 84 683 119 769 q 47 485 50 597 q 110 233 50 336 q 287 77 170 130 q 566 24 404 24 q 846 76 729 24 q 1026 233 964 129 q 1090 484 1088 337 m 811 1104 q 534 1070 648 947 q 363 1080 420 1194 l 322 1112 q 541 1166 422 1295 q 760 1131 659 1036 l 811 1104 m 401 1166 q 484 1153 445 1164 q 587 1073 522 1142 q 730 1082 652 1004 q 614 1072 648 1054 q 525 1148 579 1090 q 401 1166 471 1206 m 330 483 q 560 741 330 741 q 752 664 707 741 q 803 483 798 587 q 785 358 798 410 q 719 266 772 307 q 560 226 667 226 q 376 303 423 226 q 330 483 330 380 m 374 481 q 412 331 374 395 q 563 267 450 267 q 693 300 650 267 q 747 377 736 334 q 762 481 758 420 q 721 631 758 567 q 563 694 683 694 q 374 481 374 694 z "},"õ":{"ha":1137,"x_min":7,"x_max":1131,"o":"m 1131 484 q 1064 210 1131 323 q 870 40 997 97 q 566 -17 743 -17 q 263 40 390 -17 q 72 210 137 98 q 7 484 7 322 q 44 700 7 607 q 153 857 81 793 q 330 954 225 921 q 566 987 434 987 q 869 929 742 987 q 1064 758 997 871 q 1131 484 1131 645 m 1090 484 q 1026 736 1088 632 q 846 893 964 840 q 566 947 728 947 q 348 916 444 947 q 185 827 252 886 q 84 683 119 769 q 47 485 50 597 q 110 233 50 336 q 287 77 170 130 q 566 24 404 24 q 846 76 729 24 q 1026 233 964 129 q 1090 484 1088 337 m 811 1104 q 534 1070 648 947 q 363 1080 420 1194 l 322 1112 q 541 1166 422 1295 q 760 1131 659 1036 l 811 1104 m 401 1166 q 484 1153 445 1164 q 587 1073 522 1142 q 730 1082 652 1004 q 614 1072 648 1054 q 525 1148 579 1090 q 401 1166 471 1206 m 330 483 q 560 741 330 741 q 752 664 707 741 q 803 483 798 587 q 785 358 798 410 q 719 266 772 307 q 560 226 667 226 q 376 303 423 226 q 330 483 330 380 m 374 481 q 412 331 374 395 q 563 267 450 267 q 693 300 650 267 q 747 377 736 334 q 762 481 758 420 q 721 631 758 567 q 563 694 683 694 q 374 481 374 694 z "},"Ö":{"ha":1137,"x_min":7,"x_max":1131,"o":"m 1131 484 q 1064 210 1131 323 q 870 40 997 97 q 566 -17 743 -17 q 263 40 390 -17 q 72 210 137 98 q 7 484 7 322 q 44 700 7 607 q 153 857 81 793 q 330 954 225 921 q 566 987 434 987 q 869 929 742 987 q 1064 758 997 871 q 1131 484 1131 645 m 762 1196 q 818 1174 796 1196 q 840 1117 840 1151 q 814 1055 837 1076 q 758 1034 791 1034 q 703 1056 725 1034 q 680 1112 680 1078 q 703 1173 680 1150 q 762 1196 725 1196 m 382 1196 q 438 1174 416 1196 q 460 1117 460 1151 q 434 1055 457 1076 q 378 1034 412 1034 q 323 1056 345 1034 q 300 1112 300 1078 q 323 1173 300 1150 q 382 1196 345 1196 m 1090 484 q 1026 736 1088 632 q 846 893 964 840 q 566 947 728 947 q 348 916 444 947 q 185 827 252 886 q 84 683 119 769 q 47 485 50 597 q 110 233 50 336 q 287 77 170 130 q 566 24 404 24 q 846 76 729 24 q 1026 233 964 129 q 1090 484 1088 337 m 762 1157 q 728 1144 741 1157 q 715 1110 715 1132 q 728 1079 715 1091 q 759 1066 741 1066 q 791 1078 779 1066 q 806 1113 804 1090 q 794 1144 806 1132 q 762 1157 781 1157 m 382 1160 q 348 1147 361 1160 q 336 1113 336 1135 q 348 1081 336 1094 q 379 1069 361 1069 q 412 1081 399 1069 q 427 1116 425 1093 q 414 1147 427 1135 q 382 1160 401 1160 m 330 483 q 560 741 330 741 q 752 664 707 741 q 803 483 798 587 q 785 358 798 410 q 719 266 772 307 q 560 226 667 226 q 376 303 423 226 q 330 483 330 380 m 374 481 q 412 331 374 395 q 563 267 450 267 q 693 300 650 267 q 747 377 736 334 q 762 481 758 420 q 721 631 758 567 q 563 694 683 694 q 374 481 374 694 z "},"ö":{"ha":1137,"x_min":7,"x_max":1131,"o":"m 1131 484 q 1064 210 1131 323 q 870 40 997 97 q 566 -17 743 -17 q 263 40 390 -17 q 72 210 137 98 q 7 484 7 322 q 44 700 7 607 q 153 857 81 793 q 330 954 225 921 q 566 987 434 987 q 869 929 742 987 q 1064 758 997 871 q 1131 484 1131 645 m 762 1196 q 818 1174 796 1196 q 840 1117 840 1151 q 814 1055 837 1076 q 758 1034 791 1034 q 703 1056 725 1034 q 680 1112 680 1078 q 703 1173 680 1150 q 762 1196 725 1196 m 382 1196 q 438 1174 416 1196 q 460 1117 460 1151 q 434 1055 457 1076 q 378 1034 412 1034 q 323 1056 345 1034 q 300 1112 300 1078 q 323 1173 300 1150 q 382 1196 345 1196 m 1090 484 q 1026 736 1088 632 q 846 893 964 840 q 566 947 728 947 q 348 916 444 947 q 185 827 252 886 q 84 683 119 769 q 47 485 50 597 q 110 233 50 336 q 287 77 170 130 q 566 24 404 24 q 846 76 729 24 q 1026 233 964 129 q 1090 484 1088 337 m 762 1157 q 728 1144 741 1157 q 715 1110 715 1132 q 728 1079 715 1091 q 759 1066 741 1066 q 791 1078 779 1066 q 806 1113 804 1090 q 794 1144 806 1132 q 762 1157 781 1157 m 382 1160 q 348 1147 361 1160 q 336 1113 336 1135 q 348 1081 336 1094 q 379 1069 361 1069 q 412 1081 399 1069 q 427 1116 425 1093 q 414 1147 427 1135 q 382 1160 401 1160 m 330 483 q 560 741 330 741 q 752 664 707 741 q 803 483 798 587 q 785 358 798 410 q 719 266 772 307 q 560 226 667 226 q 376 303 423 226 q 330 483 330 380 m 374 481 q 412 331 374 395 q 563 267 450 267 q 693 300 650 267 q 747 377 736 334 q 762 481 758 420 q 721 631 758 567 q 563 694 683 694 q 374 481 374 694 z "},"Ø":{"ha":1137,"x_min":1,"x_max":1131,"o":"m 384 288 q 560 227 423 232 q 719 267 666 227 q 785 359 772 307 q 803 483 798 411 q 783 589 798 578 l 384 288 m 981 864 l 1055 924 l 1131 822 l 1072 769 q 1131 484 1131 645 q 1064 210 1131 323 q 870 40 997 97 q 566 -17 743 -17 q 190 84 390 -17 l 76 -5 l 1 95 l 92 168 q 7 484 7 322 q 44 700 7 607 q 153 857 81 793 q 330 954 225 921 q 566 987 434 987 q 844 938 742 987 q 981 864 947 890 m 742 665 q 560 741 708 741 q 330 483 330 741 q 358 369 332 378 l 742 665 m 1089 484 q 1015 768 1086 632 l 1084 826 l 1048 875 l 978 817 q 845 893 962 840 q 565 947 727 947 q 347 916 443 947 q 184 827 250 886 q 83 683 117 769 q 46 485 49 597 q 137 159 49 336 l 54 92 l 84 50 l 189 133 q 565 24 402 24 q 845 76 728 24 q 1024 233 962 129 q 1089 484 1086 337 m 378 435 l 374 481 q 563 694 374 694 q 684 666 681 694 l 378 435 m 755 519 l 760 481 q 747 376 758 419 q 693 300 736 334 q 563 267 650 267 q 460 293 465 267 l 755 519 z "},"ø":{"ha":1137,"x_min":1,"x_max":1131,"o":"m 384 288 q 560 227 423 232 q 719 267 666 227 q 785 359 772 307 q 803 483 798 411 q 783 589 798 578 l 384 288 m 981 864 l 1055 924 l 1131 822 l 1072 769 q 1131 484 1131 645 q 1064 210 1131 323 q 870 40 997 97 q 566 -17 743 -17 q 190 84 390 -17 l 76 -5 l 1 95 l 92 168 q 7 484 7 322 q 44 700 7 607 q 153 857 81 793 q 330 954 225 921 q 566 987 434 987 q 844 938 742 987 q 981 864 947 890 m 742 665 q 560 741 708 741 q 330 483 330 741 q 358 369 332 378 l 742 665 m 1089 484 q 1015 768 1086 632 l 1084 826 l 1048 875 l 978 817 q 845 893 962 840 q 565 947 727 947 q 347 916 443 947 q 184 827 250 886 q 83 683 117 769 q 46 485 49 597 q 137 159 49 336 l 54 92 l 84 50 l 189 133 q 565 24 402 24 q 845 76 728 24 q 1024 233 962 129 q 1089 484 1086 337 m 378 435 l 374 481 q 563 694 374 694 q 684 666 681 694 l 378 435 m 755 519 l 760 481 q 747 376 758 419 q 693 300 736 334 q 563 267 650 267 q 460 293 465 267 l 755 519 z "},"Ù":{"ha":1013,"x_min":41,"x_max":1013,"o":"m 359 979 l 359 400 q 397 262 355 301 q 529 221 439 224 q 649 263 601 222 q 694 400 697 304 l 694 979 l 1013 979 l 1013 939 l 735 939 l 735 400 q 690 243 739 297 q 529 180 642 190 q 363 237 411 184 q 319 400 316 290 l 319 939 l 41 939 l 41 979 l 359 979 m 972 728 l 1013 728 l 1013 405 q 973 210 1011 283 q 876 88 935 137 q 729 12 817 39 q 532 -18 640 -15 q 348 7 441 -16 q 185 79 255 30 q 78 204 116 127 q 41 404 41 281 l 41 728 l 81 728 l 81 404 q 119 223 88 283 q 211 117 149 163 q 359 48 273 71 q 532 23 446 26 q 718 54 633 27 q 852 124 802 80 q 937 229 903 168 q 972 405 970 289 l 972 728 m 189 1218 l 503 1218 l 622 1002 l 189 1218 m 323 1181 l 540 1080 l 473 1181 l 323 1181 z "},"ù":{"ha":1013,"x_min":41,"x_max":1013,"o":"m 359 979 l 359 400 q 397 262 355 301 q 529 221 439 224 q 649 263 601 222 q 694 400 697 304 l 694 979 l 1013 979 l 1013 405 q 973 210 1011 283 q 876 88 935 137 q 729 12 817 39 q 532 -18 640 -15 q 348 7 441 -16 q 185 79 255 30 q 78 204 116 127 q 41 404 41 281 l 41 979 l 359 979 m 81 939 l 81 404 q 119 223 88 283 q 211 117 149 163 q 359 48 273 71 q 532 23 446 26 q 718 54 633 27 q 852 124 802 80 q 937 229 903 168 q 972 405 970 289 l 972 939 l 735 939 l 735 400 q 690 243 739 297 q 529 180 642 190 q 363 237 411 184 q 319 400 316 290 l 319 939 l 81 939 m 189 1218 l 503 1218 l 622 1002 l 189 1218 m 323 1181 l 540 1080 l 473 1181 l 323 1181 z "},"Ú":{"ha":1013,"x_min":41,"x_max":1013,"o":"m 359 979 l 359 400 q 397 262 355 301 q 529 221 439 224 q 649 263 601 222 q 694 400 697 304 l 694 979 l 1013 979 l 1013 939 l 735 939 l 735 400 q 690 243 739 297 q 529 180 642 190 q 363 237 411 184 q 319 400 316 290 l 319 939 l 41 939 l 41 979 l 359 979 m 972 728 l 1013 728 l 1013 405 q 973 210 1011 283 q 876 88 935 137 q 729 12 817 39 q 532 -18 640 -15 q 348 7 441 -16 q 185 79 255 30 q 78 204 116 127 q 41 404 41 281 l 41 728 l 81 728 l 81 404 q 119 223 88 283 q 211 117 149 163 q 359 48 273 71 q 532 23 446 26 q 718 54 633 27 q 852 124 802 80 q 937 229 903 168 q 972 405 970 289 l 972 728 m 481 1002 l 600 1218 l 913 1218 l 481 1002 m 631 1181 l 567 1080 l 777 1181 l 631 1181 z "},"ú":{"ha":1013,"x_min":41,"x_max":1013,"o":"m 359 979 l 359 400 q 397 262 355 301 q 529 221 439 224 q 649 263 601 222 q 694 400 697 304 l 694 979 l 1013 979 l 1013 405 q 973 210 1011 283 q 876 88 935 137 q 729 12 817 39 q 532 -18 640 -15 q 348 7 441 -16 q 185 79 255 30 q 78 204 116 127 q 41 404 41 281 l 41 979 l 359 979 m 81 939 l 81 404 q 119 223 88 283 q 211 117 149 163 q 359 48 273 71 q 532 23 446 26 q 718 54 633 27 q 852 124 802 80 q 937 229 903 168 q 972 405 970 289 l 972 939 l 735 939 l 735 400 q 690 243 739 297 q 529 180 642 190 q 363 237 411 184 q 319 400 316 290 l 319 939 l 81 939 m 481 1002 l 600 1218 l 913 1218 l 481 1002 m 631 1181 l 567 1080 l 777 1181 l 631 1181 z "},"Û":{"ha":1013,"x_min":41,"x_max":1013,"o":"m 359 979 l 359 400 q 397 262 355 301 q 529 221 439 224 q 649 263 601 222 q 694 400 697 304 l 694 979 l 1013 979 l 1013 939 l 735 939 l 735 400 q 690 243 739 297 q 529 180 642 190 q 363 237 411 184 q 319 400 316 290 l 319 939 l 41 939 l 41 979 l 359 979 m 972 728 l 1013 728 l 1013 405 q 973 210 1011 283 q 876 88 935 137 q 729 12 817 39 q 532 -18 640 -15 q 348 7 441 -16 q 185 79 255 30 q 78 204 116 127 q 41 404 41 281 l 41 728 l 81 728 l 81 404 q 119 223 88 283 q 211 117 149 163 q 359 48 273 71 q 532 23 446 26 q 718 54 633 27 q 852 124 802 80 q 937 229 903 168 q 972 405 970 289 l 972 728 m 723 998 l 528 1124 l 332 1001 l 332 1043 l 526 1246 l 723 1043 l 723 998 m 526 1162 l 659 1076 l 526 1200 l 397 1069 l 526 1162 z "},"û":{"ha":1013,"x_min":41,"x_max":1013,"o":"m 359 979 l 359 400 q 397 262 355 301 q 529 221 439 224 q 649 263 601 222 q 694 400 697 304 l 694 979 l 1013 979 l 1013 405 q 973 210 1011 283 q 876 88 935 137 q 729 12 817 39 q 532 -18 640 -15 q 348 7 441 -16 q 185 79 255 30 q 78 204 116 127 q 41 404 41 281 l 41 979 l 359 979 m 81 939 l 81 404 q 119 223 88 283 q 211 117 149 163 q 359 48 273 71 q 532 23 446 26 q 718 54 633 27 q 852 124 802 80 q 937 229 903 168 q 972 405 970 289 l 972 939 l 735 939 l 735 400 q 690 243 739 297 q 529 180 642 190 q 363 237 411 184 q 319 400 316 290 l 319 939 l 81 939 m 723 998 l 528 1124 l 332 1001 l 332 1043 l 526 1246 l 723 1043 l 723 998 m 526 1162 l 659 1076 l 526 1200 l 397 1069 l 526 1162 z "},"Ü":{"ha":1013,"x_min":41,"x_max":1013,"o":"m 359 979 l 359 400 q 397 262 355 301 q 529 221 439 224 q 649 263 601 222 q 694 400 697 304 l 694 979 l 1013 979 l 1013 939 l 735 939 l 735 400 q 690 243 739 297 q 529 180 642 190 q 363 237 411 184 q 319 400 316 290 l 319 939 l 41 939 l 41 979 l 359 979 m 972 728 l 1013 728 l 1013 405 q 973 210 1011 283 q 876 88 935 137 q 729 12 817 39 q 532 -18 640 -15 q 348 7 441 -16 q 185 79 255 30 q 78 204 116 127 q 41 404 41 281 l 41 728 l 81 728 l 81 404 q 119 223 88 283 q 211 117 149 163 q 359 48 273 71 q 532 23 446 26 q 718 54 633 27 q 852 124 802 80 q 937 229 903 168 q 972 405 970 289 l 972 728 m 371 1196 q 428 1174 406 1196 q 450 1117 450 1151 q 424 1055 446 1076 q 367 1034 401 1034 q 312 1056 334 1034 q 290 1112 290 1078 q 312 1173 290 1150 q 371 1196 334 1196 m 371 1157 q 337 1144 350 1157 q 325 1110 325 1132 q 337 1079 325 1091 q 368 1066 350 1066 q 401 1078 388 1066 q 416 1113 414 1090 q 403 1144 416 1132 q 371 1157 391 1157 m 694 1194 q 750 1171 728 1194 q 772 1114 772 1148 q 746 1052 769 1073 q 690 1031 724 1031 q 635 1053 657 1031 q 612 1109 612 1076 q 635 1171 612 1147 q 694 1194 657 1194 m 694 1154 q 660 1142 673 1154 q 648 1107 648 1129 q 660 1076 648 1088 q 691 1063 673 1063 q 724 1075 711 1063 q 739 1110 736 1087 q 726 1142 739 1129 q 694 1154 713 1154 z "},"ü":{"ha":1013,"x_min":41,"x_max":1013,"o":"m 359 979 l 359 400 q 397 262 355 301 q 529 221 439 224 q 649 263 601 222 q 694 400 697 304 l 694 979 l 1013 979 l 1013 405 q 973 210 1011 283 q 876 88 935 137 q 729 12 817 39 q 532 -18 640 -15 q 348 7 441 -16 q 185 79 255 30 q 78 204 116 127 q 41 404 41 281 l 41 979 l 359 979 m 81 939 l 81 404 q 119 223 88 283 q 211 117 149 163 q 359 48 273 71 q 532 23 446 26 q 718 54 633 27 q 852 124 802 80 q 937 229 903 168 q 972 405 970 289 l 972 939 l 735 939 l 735 400 q 690 243 739 297 q 529 180 642 190 q 363 237 411 184 q 319 400 316 290 l 319 939 l 81 939 m 371 1196 q 428 1174 406 1196 q 450 1117 450 1151 q 424 1055 446 1076 q 367 1034 401 1034 q 312 1056 334 1034 q 290 1112 290 1078 q 312 1173 290 1150 q 371 1196 334 1196 m 694 1194 q 750 1171 728 1194 q 772 1114 772 1148 q 746 1052 769 1073 q 690 1031 724 1031 q 635 1053 657 1031 q 612 1109 612 1076 q 635 1171 612 1147 q 694 1194 657 1194 m 371 1157 q 337 1144 350 1157 q 325 1110 325 1132 q 337 1079 325 1091 q 368 1066 350 1066 q 401 1078 388 1066 q 416 1113 414 1090 q 403 1144 416 1132 q 371 1157 391 1157 m 694 1154 q 660 1142 673 1154 q 648 1107 648 1129 q 660 1076 648 1088 q 691 1063 673 1063 q 724 1075 711 1063 q 739 1110 736 1087 q 726 1142 739 1129 q 694 1154 713 1154 z "},"Ý":{"ha":857,"x_min":41,"x_max":857,"o":"m 41 939 l 41 979 l 248 979 l 448 677 l 650 979 l 857 979 l 857 939 l 677 939 l 471 636 l 427 636 l 227 939 l 41 939 m 857 728 l 857 688 l 840 688 l 609 359 l 609 0 l 289 0 l 289 359 l 58 688 l 41 688 l 41 728 l 81 728 l 331 372 l 331 41 l 570 41 l 570 372 l 817 728 l 857 728 m 405 1002 l 524 1218 l 838 1218 l 405 1002 m 552 1181 l 488 1080 l 699 1181 l 552 1181 z "},"ý":{"ha":1095,"x_min":0,"x_max":1175,"o":"m 1175 979 l 747 359 l 747 0 l 427 0 l 427 359 l 0 979 l 387 979 l 586 677 l 788 979 l 1175 979 m 79 939 l 469 372 l 469 41 l 708 41 l 708 372 l 1100 939 l 815 939 l 610 636 l 566 636 l 365 939 l 79 939 m 538 1002 l 657 1218 l 970 1218 l 538 1002 m 682 1181 l 618 1080 l 829 1181 l 682 1181 z "},"Þ":{"ha":945,"x_min":41,"x_max":943,"o":"m 359 184 l 359 0 l 41 0 l 41 41 l 319 41 l 319 225 l 524 225 q 699 242 632 224 q 808 290 766 260 q 873 368 849 320 q 903 495 897 416 q 873 626 897 578 q 806 704 849 674 q 693 752 764 734 q 319 765 623 770 l 319 939 l 41 939 l 41 979 l 359 979 l 359 808 q 705 789 631 808 q 829 736 779 770 q 912 644 880 701 q 943 494 943 587 q 907 349 938 409 q 827 255 877 290 q 704 201 777 220 q 522 184 631 182 l 359 184 m 359 576 l 359 400 l 511 399 q 594 409 562 399 q 646 434 626 419 q 672 488 666 449 q 649 540 670 524 q 595 566 629 557 q 509 576 562 576 l 359 576 m 511 351 l 319 351 l 319 623 l 509 623 q 606 612 567 623 q 679 571 646 602 q 711 487 712 541 q 677 401 705 426 q 604 364 648 377 q 511 351 560 351 m 81 728 l 81 251 l 41 251 l 41 728 l 81 728 z "},"þ":{"ha":945,"x_min":41,"x_max":943,"o":"m 359 184 l 359 0 l 41 0 l 41 979 l 359 979 l 359 808 q 705 789 631 808 q 829 736 779 770 q 912 644 880 701 q 943 494 943 587 q 907 349 938 409 q 827 255 877 290 q 704 201 777 220 q 522 184 631 182 l 359 184 m 81 939 l 81 41 l 319 41 l 319 225 l 524 225 q 699 242 632 224 q 808 290 766 260 q 873 368 849 320 q 903 495 897 416 q 873 626 897 578 q 806 704 849 674 q 693 752 764 734 q 319 765 623 770 l 319 939 l 81 939 m 511 351 l 319 351 l 319 623 l 509 623 q 606 612 567 623 q 679 571 646 602 q 711 487 712 541 q 677 401 705 426 q 604 364 648 377 q 511 351 560 351 m 359 576 l 359 400 l 511 399 q 594 409 562 399 q 646 434 626 419 q 672 488 666 449 q 649 540 670 524 q 595 566 629 557 q 509 576 562 576 l 359 576 z "},"ß":{"ha":1104,"x_min":41,"x_max":1097,"o":"m 378 379 l 378 -201 l 41 -201 l 41 979 l 709 979 q 953 924 869 978 q 1055 742 1037 869 q 1013 589 1061 644 q 857 497 966 533 l 857 494 q 956 466 910 488 q 1032 413 1001 444 q 1080 345 1063 383 q 1097 271 1097 307 q 1037 95 1097 155 q 885 17 978 35 q 659 0 791 -1 l 464 0 l 464 198 l 596 198 q 694 222 652 196 q 738 288 736 249 q 702 355 741 330 q 596 379 664 379 l 437 380 l 437 594 l 616 593 q 657 614 635 593 q 680 669 679 635 q 654 726 677 709 q 615 742 631 742 l 378 742 l 378 379 m 81 -160 l 338 -160 l 337 783 l 616 783 q 676 755 637 783 q 721 669 714 727 q 683 584 719 620 q 616 553 647 548 l 477 553 l 477 420 l 596 420 q 729 385 676 422 q 779 288 783 348 q 718 193 772 229 q 595 157 664 157 l 506 157 l 506 41 l 659 41 q 878 56 789 38 q 1013 126 966 73 q 1056 271 1059 180 q 1040 337 1056 307 q 1000 391 1025 368 q 937 434 976 415 q 809 473 899 454 l 809 517 q 973 599 925 549 q 1014 742 1021 648 q 926 893 999 849 q 709 939 854 937 l 81 939 l 81 -160 z "},"ÿ":{"ha":1095,"x_min":0,"x_max":1175,"o":"m 1175 979 l 747 359 l 747 0 l 427 0 l 427 359 l 0 979 l 387 979 l 586 677 l 788 979 l 1175 979 m 79 939 l 469 372 l 469 41 l 708 41 l 708 372 l 1100 939 l 815 939 l 610 636 l 566 636 l 365 939 l 79 939 m 441 1196 q 498 1174 476 1196 q 520 1117 520 1151 q 494 1055 517 1076 q 437 1034 471 1034 q 382 1056 405 1034 q 360 1112 360 1078 q 382 1173 360 1150 q 441 1196 405 1196 m 441 1157 q 408 1144 420 1157 q 395 1110 395 1132 q 408 1079 395 1091 q 439 1066 420 1066 q 471 1078 458 1066 q 486 1113 484 1090 q 474 1144 486 1132 q 441 1157 461 1157 m 756 1199 q 813 1176 791 1199 q 835 1120 835 1154 q 809 1057 831 1078 q 752 1036 786 1036 q 697 1059 720 1036 q 675 1115 675 1081 q 697 1176 675 1153 q 756 1199 720 1199 m 756 1160 q 723 1147 735 1160 q 710 1113 710 1135 q 723 1081 710 1094 q 753 1069 735 1069 q 786 1081 773 1069 q 801 1116 799 1093 q 788 1147 801 1135 q 756 1160 776 1160 z "},"Œ":{"ha":1398,"x_min":11,"x_max":1398,"o":"m 564 939 q 346 909 439 937 q 191 820 252 880 q 91 681 130 760 q 57 486 51 602 q 113 243 57 334 q 286 96 168 153 q 513 41 403 38 l 1398 41 l 1398 0 l 513 0 q 269 58 393 -5 q 79 224 144 122 q 16 486 14 326 q 52 696 11 608 q 163 848 92 784 q 334 944 233 911 q 564 979 434 977 l 1356 979 l 1356 688 l 836 688 l 836 575 l 1172 575 l 1172 404 l 836 404 l 836 292 l 1398 292 l 1398 251 l 795 251 l 795 444 l 1131 444 l 1131 534 l 795 534 l 795 728 l 1316 728 l 1316 939 l 564 939 m 330 483 q 602 743 330 741 l 602 224 q 376 303 423 226 q 330 483 330 380 m 374 481 q 412 331 374 395 q 563 267 450 267 l 563 694 q 374 481 374 694 z "},"œ":{"ha":1398,"x_min":11,"x_max":1398,"o":"m 564 939 q 346 909 439 937 q 191 820 252 880 q 91 681 130 760 q 57 486 51 602 q 113 243 57 334 q 286 96 168 153 q 513 41 403 38 l 1358 41 l 1358 251 l 795 251 l 795 444 l 1131 444 l 1131 534 l 795 534 l 795 728 l 1316 728 l 1316 939 l 564 939 m 330 483 q 602 743 330 741 l 602 224 q 376 303 423 226 q 330 483 330 380 m 374 481 q 412 331 374 395 q 563 267 450 267 l 563 694 q 374 481 374 694 m 1398 292 l 1398 0 l 513 0 q 269 58 393 -5 q 79 224 144 122 q 16 486 14 326 q 52 696 11 608 q 163 848 92 784 q 334 944 233 911 q 564 979 434 977 l 1356 979 l 1356 688 l 836 688 l 836 575 l 1172 575 l 1172 404 l 836 404 l 836 292 l 1398 292 z "},"Š":{"ha":770,"x_min":19,"x_max":770,"o":"m 770 979 l 770 939 l 277 939 q 99 788 136 936 q 293 426 62 640 q 206 251 464 258 l 41 251 l 41 292 l 206 292 q 255 399 398 286 q 54 798 19 616 q 277 979 90 979 l 770 979 m 770 688 l 572 688 q 521 591 398 693 q 736 217 741 399 q 521 0 732 35 l 41 0 l 41 41 l 521 41 q 694 236 700 79 q 456 591 689 393 q 572 728 347 732 l 770 728 l 770 688 m 625 1237 l 429 989 l 234 1237 l 234 1289 l 431 1139 l 625 1291 l 625 1237 m 296 1204 l 429 1040 l 559 1196 l 429 1084 l 296 1204 z "},"š":{"ha":770,"x_min":0,"x_max":770,"o":"m 770 979 l 770 688 l 572 688 q 521 591 398 693 q 736 217 741 399 q 521 0 732 35 l 0 0 l 0 292 l 206 292 q 255 399 398 286 q 54 798 19 616 q 277 979 90 979 l 770 979 m 625 1237 l 429 989 l 234 1237 l 234 1289 l 431 1139 l 625 1291 l 625 1237 m 41 251 l 41 41 l 521 41 q 694 236 700 79 q 456 591 689 393 q 572 728 347 732 l 729 728 l 729 939 l 277 939 q 99 788 136 936 q 293 426 62 640 q 206 251 464 258 l 41 251 m 296 1204 l 429 1040 l 559 1196 l 429 1084 l 296 1204 z "},"Ÿ":{"ha":857,"x_min":41,"x_max":857,"o":"m 41 939 l 41 979 l 248 979 l 448 677 l 650 979 l 857 979 l 857 939 l 677 939 l 471 636 l 427 636 l 227 939 l 41 939 m 857 728 l 857 688 l 840 688 l 609 359 l 609 0 l 289 0 l 289 359 l 58 688 l 41 688 l 41 728 l 81 728 l 331 372 l 331 41 l 570 41 l 570 372 l 817 728 l 857 728 m 295 1194 q 352 1171 330 1194 q 374 1114 374 1148 q 348 1052 370 1073 q 291 1031 325 1031 q 236 1053 258 1031 q 214 1109 214 1076 q 236 1171 214 1147 q 295 1194 258 1194 m 604 1196 q 661 1174 639 1196 q 683 1117 683 1151 q 657 1055 680 1076 q 600 1034 634 1034 q 545 1056 568 1034 q 523 1112 523 1078 q 545 1173 523 1150 q 604 1196 568 1196 m 295 1154 q 261 1142 274 1154 q 249 1107 249 1129 q 261 1076 249 1088 q 292 1063 274 1063 q 325 1075 312 1063 q 340 1110 338 1087 q 327 1142 340 1129 q 295 1154 315 1154 m 604 1157 q 571 1144 583 1157 q 558 1110 558 1132 q 571 1079 558 1091 q 602 1066 583 1066 q 634 1078 621 1066 q 649 1113 647 1090 q 636 1144 649 1132 q 604 1157 624 1157 z "},"Ž":{"ha":936,"x_min":41,"x_max":936,"o":"m 41 939 l 41 979 l 936 979 l 936 688 l 462 292 l 936 292 l 936 251 l 421 251 l 421 309 l 895 701 l 895 939 l 41 939 m 936 0 l 41 0 l 41 292 l 515 688 l 41 688 l 41 728 l 553 728 l 553 671 l 81 273 l 81 41 l 936 41 l 936 0 m 639 1237 l 442 989 l 248 1237 l 248 1289 l 444 1139 l 639 1291 l 639 1237 m 309 1204 l 442 1040 l 572 1196 l 442 1084 l 309 1204 z "},"ž":{"ha":936,"x_min":41,"x_max":936,"o":"m 41 979 l 936 979 l 936 688 l 462 292 l 936 292 l 936 0 l 41 0 l 41 292 l 515 688 l 41 688 l 41 979 m 639 1237 l 442 989 l 248 1237 l 248 1289 l 444 1139 l 639 1291 l 639 1237 m 309 1204 l 442 1040 l 572 1196 l 442 1084 l 309 1204 m 81 939 l 81 728 l 553 728 l 553 671 l 81 273 l 81 41 l 895 41 l 895 251 l 421 251 l 421 309 l 895 701 l 895 939 l 81 939 z "},"¿":{"ha":798,"x_min":57,"x_max":741,"o":"m 350 593 q 317 520 351 560 q 218 428 282 480 q 128 339 155 376 q 98 236 102 302 q 154 120 104 165 q 281 57 203 75 q 438 41 358 39 q 582 53 515 39 q 700 91 648 66 l 700 229 q 643 214 684 222 q 545 203 602 205 q 416 221 464 199 q 366 301 368 243 q 404 387 368 358 q 471 439 441 416 q 524 500 500 461 q 556 593 548 538 l 350 593 m 606 734 l 303 734 l 303 996 l 606 996 l 606 734 m 566 770 l 566 958 l 341 958 l 341 770 l 566 770 m 315 633 l 593 633 q 562 485 588 536 q 501 408 535 433 q 437 359 467 382 q 408 301 408 336 q 443 255 408 266 q 545 244 478 244 q 647 258 591 244 q 741 290 702 272 l 741 51 q 590 13 661 26 q 438 0 520 0 q 269 19 355 0 q 119 92 182 39 q 57 236 57 144 q 90 353 57 307 q 190 454 123 399 q 286 543 256 508 q 315 633 315 578 z "},"¶":{"ha":1389,"x_min":-84,"x_max":1525,"o":"m 338 1706 l 595 1732 l 609 1689 l 496 1608 l 424 1601 l 376 1101 q 506 1294 431 1242 q 683 1360 582 1346 q 888 1361 784 1373 q 1047 1314 993 1350 q 1140 1202 1102 1279 q 1188 1044 1177 1124 l 1202 1017 l 1205 892 l 1260 452 l 1068 352 l 1072 335 l 1092 318 q 1318 311 1306 372 l 1401 298 q 1400 221 1448 244 l 420 194 l 92 154 q 215 271 41 191 l 427 288 l 397 321 l 383 355 l 410 395 l 414 412 l 318 456 l 359 892 l 359 1004 q 318 1050 332 1010 l 376 1598 l 332 1618 l 315 1675 l 338 1706 m 883 1005 l 883 888 l 890 874 l 886 313 l 941 310 l 945 914 l 955 914 l 955 998 l 883 1005 m 623 1012 l 599 945 l 664 931 l 677 1008 l 623 1012 m 518 949 l 528 1010 l 508 1012 l 494 949 l 518 949 m 414 965 l 420 965 l 426 990 l 378 994 l 378 968 l 414 965 m 1056 991 l 1042 920 l 1069 921 l 1094 987 l 1056 991 m 1097 923 l 1147 921 l 1169 951 l 1174 981 l 1120 991 l 1097 923 m 369 946 l 596 923 l 741 895 l 730 401 l 716 530 q 684 726 701 673 q 630 820 667 780 q 554 880 592 861 q 475 902 517 899 q 378 907 434 905 l 369 946 m 971 892 l 1169 920 l 1176 871 q 1107 847 1131 857 q 1066 810 1084 837 q 1027 728 1049 783 q 984 508 1004 673 l 968 363 l 971 892 m 355 960 l 364 895 q 454 893 407 896 q 542 870 501 891 q 618 810 582 849 q 671 724 655 772 q 724 366 686 675 l 739 357 l 751 906 l 595 933 l 355 960 m 960 905 l 958 315 l 974 317 q 1038 723 1010 654 q 1085 814 1066 792 q 1136 847 1104 836 q 1185 859 1167 859 l 1185 930 l 960 905 m 724 311 q 685 452 699 401 q 655 563 672 503 q 608 682 637 623 q 515 762 578 741 q 423 726 448 757 q 376 640 398 694 q 330 463 354 585 l 724 311 m 1198 439 q 1149 692 1172 629 q 1101 746 1127 755 q 1045 688 1059 720 q 1024 625 1030 656 q 1004 496 1019 593 l 994 385 l 987 320 l 1198 431 l 1198 439 m 376 1027 l 369 1017 l 380 1000 l 462 1012 l 551 1020 l 672 1022 l 874 1014 l 1006 1000 l 1145 998 l 1190 980 l 1186 1025 q 1066 1057 1130 1047 q 908 1072 1002 1066 q 721 1076 814 1078 q 551 1071 628 1074 q 376 1027 473 1067 m 395 1030 q 608 1059 490 1055 q 786 1062 726 1062 q 925 1059 846 1062 q 1067 1045 1004 1055 q 1183 1015 1130 1036 l 1186 990 l 1130 1004 l 947 1017 l 813 1023 l 650 1027 l 534 1025 l 437 1017 l 380 1007 l 376 1015 l 395 1030 m 647 1311 q 805 1297 749 1299 q 917 1291 861 1294 q 985 1293 974 1287 q 990 1311 996 1299 q 961 1333 984 1322 q 887 1348 938 1343 q 796 1353 837 1353 q 721 1348 755 1353 q 647 1311 688 1343 m 979 1277 q 1014 1218 989 1230 q 1055 1202 1039 1205 q 1083 1211 1072 1198 q 1084 1240 1094 1223 q 1057 1270 1075 1257 q 1024 1284 1039 1282 q 979 1277 1010 1286 m 1013 1280 q 1054 1267 1036 1280 q 1080 1239 1072 1255 q 1082 1218 1088 1223 q 1067 1216 1076 1213 q 1045 1222 1059 1219 q 1017 1239 1031 1225 q 999 1263 1003 1252 q 1013 1280 994 1275 m 391 1603 l 355 1205 l 404 1603 l 391 1603 m 231 229 q 103 195 131 209 q 86 171 75 180 q 122 165 98 162 q 170 184 145 169 q 231 229 195 199 m 1409 251 q 1368 283 1395 285 q 1317 268 1340 281 q 1252 249 1294 254 q 1179 235 1210 243 q 1233 233 1149 227 q 1409 251 1316 239 m 239 98 q 201 -16 258 3 l 239 -35 q 354 136 277 117 q 563 60 544 136 q 468 -149 601 -92 l 354 -149 l 258 -54 q -8 -149 239 -168 l -27 41 l -84 41 l -84 136 q 239 98 239 155 m 68 22 l 144 22 l 144 60 l 68 60 l 68 22 m 68 -92 l 163 -73 l 144 -35 l 68 -35 l 68 -92 m 392 -92 l 468 -73 l 449 60 l 354 41 q 392 -92 334 -54 m 582 136 q 848 98 829 155 q 810 -16 867 3 q 867 -73 867 3 l 943 136 l 1077 136 l 1153 -92 l 1153 -149 l 962 -92 l 924 -149 l 829 -111 q 582 -149 753 -168 l 582 136 m 677 22 l 753 22 l 753 60 l 677 60 l 677 22 m 677 -92 l 772 -73 l 753 -35 l 677 -35 l 677 -92 m 981 -35 l 1039 -35 l 1019 60 l 981 22 l 981 -35 m 152 -195 l 418 -195 l 418 -290 l 286 -309 l 380 -309 l 380 -366 l 304 -366 l 267 -480 l 190 -461 l 152 -290 l 152 -195 m 742 -271 q 647 -480 780 -423 q 437 -385 456 -480 q 532 -195 399 -290 q 742 -271 723 -195 m 570 -423 l 647 -404 l 628 -271 l 532 -290 q 570 -423 513 -385 m 764 -192 q 916 -268 840 -154 q 954 -192 916 -192 l 1258 -192 l 1258 -287 l 1182 -287 l 1182 -382 l 1354 -382 q 1316 -192 1220 -249 l 1506 -192 l 1506 -268 l 1411 -306 q 1411 -477 1525 -420 l 1106 -477 l 1087 -306 l 1011 -287 l 992 -477 l 935 -477 l 840 -382 l 840 -477 l 764 -477 l 764 -192 z "}}}
